G04 ================== begin FILE IDENTIFICATION RECORD ==================*
G04 Layout Name:  SCHEMAX7_v2.brd*
G04 Film Name:    BOTTOM*
G04 File Format:  Gerber RS274X*
G04 File Origin:  Cadence Allegro 16.6-2015-S059*
G04 Origin Date:  Sat Dec 10 16:00:36 2022*
G04 *
G04 Layer:  ETCH/BOTTOM*
G04 Layer:  PIN/BOTTOM*
G04 Layer:  VIA CLASS/BOTTOM*
G04 *
G04 Offset:    (0.00 0.00)*
G04 Mirror:    No*
G04 Mode:      Positive*
G04 Rotation:  0*
G04 FullContactRelief:  No*
G04 UndefLineWidth:     5.00*
G04 ================== end FILE IDENTIFICATION RECORD ====================*
%FSLAX25Y25*MOIN*%
%IR0*IPPOS*OFA0.00000B0.00000*MIA0B0*SFA1.00000B1.00000*%
%ADD10C,.03*%
%ADD11C,.022*%
%ADD12C,.018*%
G75*
%LPD*%
G75*
G54D10*
X67500Y31900D03*
X66200Y47500D03*
X52700Y91100D03*
X52200Y110500D03*
X85200Y28100D03*
X68500Y52000D03*
X96000Y91100D03*
X74400Y94400D03*
X79600Y131300D03*
X70100Y144800D03*
X127000Y13500D03*
X99100Y49900D03*
X123600Y103800D03*
X120800Y79200D03*
X126900Y138000D03*
X142800Y27800D03*
X150700Y32200D03*
X131600Y65600D03*
X137900Y104600D03*
X131800Y104400D03*
G54D11*
G01X70100Y144800D02*
Y112700D01*
X67900Y110500D01*
X52200D01*
G01X142800Y27800D02*
Y129186D01*
X140600Y131386D01*
X83486D01*
X83400Y131300D01*
X79600D01*
G01X137900Y104600D02*
Y64737D01*
X134963Y61800D01*
Y15700D01*
X132763Y13500D01*
X127000D01*
G54D12*
G01X120800Y79200D02*
X64500D01*
X62700Y77400D01*
Y49092D01*
X62600Y48992D01*
Y33200D01*
X63900Y31900D01*
X67500D01*
G01X66200Y47500D02*
X83400D01*
X85200Y45700D01*
Y28100D01*
G01X52700Y91100D02*
X72608D01*
X72908Y90800D01*
X80900D01*
X81200Y91100D01*
X96000D01*
G01X68500Y52000D02*
X83143D01*
X85243Y49900D01*
X99100D01*
G01X126900Y138000D02*
X123300D01*
X122200Y136900D01*
X76200D01*
X74400Y135100D01*
Y94400D01*
G01X123600Y103800D02*
X126146Y101254D01*
Y51446D01*
X124600Y49900D01*
X99100D01*
G01X150700Y32200D02*
Y135100D01*
X148900Y136900D01*
X131600D01*
X130500Y138000D01*
X126900D01*
G01X131800Y104400D02*
Y85401D01*
X131600Y85201D01*
Y65600D01*
M02*
