M48
INCH,LZ
T01C.016
;LEADER: 12 
;HEADER: 
;CODE  : ASCII 
;FILE  : SCHEMAX7_v2-1-2.drl for  ... layers TOP and BOTTOM
;DESIGN: SCHEMAX7_v2.brd
;T01 Holesize 1. = 16.000000 Tolerance = +0.000000/-0.000000 PLATED MILS Quantity = 20
%
G90
T01
X01316Y00656
X01318Y01044
X01507Y00322
X01269Y0138
X00744Y00944
X01208Y00792
X00675Y00319
X01428Y00278
X00796Y01313
X00522Y01105
X00701Y01448
X0127Y00135
X01379Y01046
X0096Y00911
X00527
X01236Y01038
X00685Y0052
X00991Y00499
X00852Y00281
X00662Y00475
M30
