G04 ================== begin FILE IDENTIFICATION RECORD ==================*
G04 Layout Name:  SCHEMAX7_v2.brd*
G04 Film Name:    FAB*
G04 File Format:  Gerber RS274X*
G04 File Origin:  Cadence Allegro 16.6-2015-S059*
G04 Origin Date:  Tue Dec 13 13:45:19 2022*
G04 *
G04 Layer:  MANUFACTURING/XSECTION_CHART*
G04 Layer:  MANUFACTURING/PHOTOPLOT_OUTLINE*
G04 Layer:  MANUFACTURING/NCLEGEND-1-2*
G04 Layer:  MANUFACTURING/NCDRILL_LEGEND*
G04 Layer:  MANUFACTURING/NCDRILL_FIGURE*
G04 Layer:  DRAWING FORMAT/OUTLINE*
G04 Layer:  DRAWING FORMAT/DRAWING_ORIGIN*
G04 Layer:  BOARD GEOMETRY/WB_GUIDE_LINE*
G04 Layer:  BOARD GEOMETRY/OUTLINE*
G04 Layer:  BOARD GEOMETRY/DIMENSION*
G04 *
G04 Offset:    (0.00 0.00)*
G04 Mirror:    No*
G04 Mode:      Positive*
G04 Rotation:  0*
G04 FullContactRelief:  No*
G04 UndefLineWidth:     8.00*
G04 ================== end FILE IDENTIFICATION RECORD ====================*
%FSLAX25Y25*MOIN*%
%IR0*IPPOS*OFA0.00000B0.00000*MIA0B0*SFA1.00000B1.00000*%
%AMMACRO10*
1,1,.008,.025,0.0*
20,1,.008,.025,0.0,-.025,0.0,0.0*
1,1,.008,-.025,0.0*
1,1,.008,0.0,.025*
20,1,.008,0.0,.025,0.0,-.025,0.0*
1,1,.008,0.0,-.025*
%
%ADD10MACRO10*%
%AMMACRO11*
1,1,.008,.025,0.0*
20,1,.008,.025,0.0,.02462,-.004341,0.0*
1,1,.008,.02462,-.004341*
20,1,.008,.02462,-.004341,.023492,-.008551,0.0*
1,1,.008,.023492,-.008551*
20,1,.008,.023492,-.008551,.021651,-.0125,0.0*
1,1,.008,.021651,-.0125*
20,1,.008,.021651,-.0125,.019151,-.01607,0.0*
1,1,.008,.019151,-.01607*
20,1,.008,.019151,-.01607,.01607,-.019151,0.0*
1,1,.008,.01607,-.019151*
20,1,.008,.01607,-.019151,.0125,-.021651,0.0*
1,1,.008,.0125,-.021651*
20,1,.008,.0125,-.021651,.008551,-.023492,0.0*
1,1,.008,.008551,-.023492*
20,1,.008,.008551,-.023492,.004341,-.02462,0.0*
1,1,.008,.004341,-.02462*
20,1,.008,.004341,-.02462,0.0,-.025,0.0*
1,1,.008,0.0,-.025*
20,1,.008,0.0,-.025,-.004341,-.02462,0.0*
1,1,.008,-.004341,-.02462*
20,1,.008,-.004341,-.02462,-.008551,-.023492,0.0*
1,1,.008,-.008551,-.023492*
20,1,.008,-.008551,-.023492,-.0125,-.021651,0.0*
1,1,.008,-.0125,-.021651*
20,1,.008,-.0125,-.021651,-.01607,-.019151,0.0*
1,1,.008,-.01607,-.019151*
20,1,.008,-.01607,-.019151,-.019151,-.01607,0.0*
1,1,.008,-.019151,-.01607*
20,1,.008,-.019151,-.01607,-.021651,-.0125,0.0*
1,1,.008,-.021651,-.0125*
20,1,.008,-.021651,-.0125,-.023492,-.008551,0.0*
1,1,.008,-.023492,-.008551*
20,1,.008,-.023492,-.008551,-.02462,-.004341,0.0*
1,1,.008,-.02462,-.004341*
20,1,.008,-.02462,-.004341,-.025,0.0,0.0*
1,1,.008,-.025,0.0*
20,1,.008,-.025,0.0,-.02462,.004341,0.0*
1,1,.008,-.02462,.004341*
20,1,.008,-.02462,.004341,-.023492,.008551,0.0*
1,1,.008,-.023492,.008551*
20,1,.008,-.023492,.008551,-.021651,.0125,0.0*
1,1,.008,-.021651,.0125*
20,1,.008,-.021651,.0125,-.019151,.01607,0.0*
1,1,.008,-.019151,.01607*
20,1,.008,-.019151,.01607,-.01607,.019151,0.0*
1,1,.008,-.01607,.019151*
20,1,.008,-.01607,.019151,-.0125,.021651,0.0*
1,1,.008,-.0125,.021651*
20,1,.008,-.0125,.021651,-.008551,.023492,0.0*
1,1,.008,-.008551,.023492*
20,1,.008,-.008551,.023492,-.004341,.02462,0.0*
1,1,.008,-.004341,.02462*
20,1,.008,-.004341,.02462,0.0,.025,0.0*
1,1,.008,0.0,.025*
20,1,.008,0.0,.025,.004341,.02462,0.0*
1,1,.008,.004341,.02462*
20,1,.008,.004341,.02462,.008551,.023492,0.0*
1,1,.008,.008551,.023492*
20,1,.008,.008551,.023492,.0125,.021651,0.0*
1,1,.008,.0125,.021651*
20,1,.008,.0125,.021651,.01607,.019151,0.0*
1,1,.008,.01607,.019151*
20,1,.008,.01607,.019151,.019151,.01607,0.0*
1,1,.008,.019151,.01607*
20,1,.008,.019151,.01607,.021651,.0125,0.0*
1,1,.008,.021651,.0125*
20,1,.008,.021651,.0125,.023492,.008551,0.0*
1,1,.008,.023492,.008551*
20,1,.008,.023492,.008551,.02462,.004341,0.0*
1,1,.008,.02462,.004341*
20,1,.008,.02462,.004341,.025,0.0,0.0*
1,1,.008,.025,0.0*
1,1,.008,.0125,0.0*
20,1,.008,.0125,0.0,-.0125,0.0,0.0*
1,1,.008,-.0125,0.0*
1,1,.008,0.0,.0125*
20,1,.008,0.0,.0125,0.0,-.0125,0.0*
1,1,.008,0.0,-.0125*
%
%ADD11MACRO11*%
%ADD12C,.005*%
%ADD13C,.008*%
G75*
%LPD*%
G75*
G36*
G01X-247600Y171203D02*
Y168789D01*
X-245100D01*
Y-27187D01*
X-247600D01*
Y-29601D01*
X-232600D01*
Y-27187D01*
X-235100D01*
Y168789D01*
X-232600D01*
Y171203D01*
X-247600D01*
G37*
G36*
G01X-267600Y-29601D02*
Y-27187D01*
X-207600D01*
Y-29601D01*
X-267600D01*
G37*
G36*
G01Y168789D02*
Y171203D01*
X-207600D01*
Y168789D01*
X-267600D01*
G37*
G54D10*
X0Y0D03*
G54D11*
X67500Y31900D03*
X66200Y47500D03*
X52700Y91100D03*
X52200Y110500D03*
X85200Y28100D03*
X68500Y52000D03*
X96000Y91100D03*
X74400Y94400D03*
X79600Y131300D03*
X70100Y144800D03*
X127000Y13500D03*
X99100Y49900D03*
X123600Y103800D03*
X120800Y79200D03*
X126900Y138000D03*
X142800Y27800D03*
X150700Y32200D03*
X131600Y65600D03*
X137900Y104600D03*
X131800Y104400D03*
X281900Y115050D03*
G54D12*
G01X-260687Y-35717D02*
Y-34117D01*
X-260153D01*
X-259940Y-34197D01*
X-259780Y-34304D01*
X-259647Y-34464D01*
X-259540Y-34650D01*
X-259513Y-34917D01*
X-259540Y-35184D01*
X-259647Y-35370D01*
X-259780Y-35530D01*
X-259940Y-35637D01*
X-260153Y-35717D01*
X-260687D01*
G01X-257767D02*
X-258833D01*
Y-34117D01*
X-257767D01*
G01X-258193Y-34890D02*
X-258833D01*
G01X-257060Y-35504D02*
X-256847Y-35637D01*
X-256607Y-35717D01*
X-256393D01*
X-256180Y-35637D01*
X-256020Y-35504D01*
X-255940Y-35317D01*
X-255993Y-35130D01*
X-256127Y-34970D01*
X-256367Y-34864D01*
X-256687Y-34810D01*
X-256873Y-34704D01*
X-256953Y-34517D01*
X-256900Y-34330D01*
X-256767Y-34197D01*
X-256580Y-34117D01*
X-256393D01*
X-256207Y-34170D01*
X-256047Y-34304D01*
G01X-255020Y-34117D02*
X-254380D01*
G01X-254700D02*
Y-35717D01*
G01X-255020D02*
X-254380D01*
G01X-252740Y-34917D02*
X-252207D01*
Y-35397D01*
X-252367Y-35557D01*
X-252553Y-35664D01*
X-252820Y-35717D01*
X-253087Y-35664D01*
X-253273Y-35557D01*
X-253433Y-35397D01*
X-253540Y-35210D01*
X-253593Y-34997D01*
Y-34810D01*
X-253540Y-34650D01*
X-253433Y-34464D01*
X-253273Y-34304D01*
X-253113Y-34197D01*
X-252900Y-34117D01*
X-252713D01*
X-252500Y-34170D01*
X-252340Y-34277D01*
G01X-251713Y-35717D02*
Y-34117D01*
X-250487Y-35717D01*
Y-34117D01*
G01X-246913Y-34250D02*
X-247073Y-34170D01*
X-247260Y-34117D01*
X-247473D01*
X-247713Y-34197D01*
X-247900Y-34330D01*
X-248033Y-34490D01*
X-248140Y-34757D01*
X-248167Y-34997D01*
X-248113Y-35237D01*
X-248033Y-35397D01*
X-247873Y-35557D01*
X-247687Y-35664D01*
X-247500Y-35717D01*
X-247313D01*
X-247127Y-35664D01*
X-246967Y-35584D01*
X-246833Y-35477D01*
G01X-246233Y-35717D02*
Y-34117D01*
X-245567D01*
X-245353Y-34197D01*
X-245220Y-34304D01*
X-245167Y-34517D01*
X-245220Y-34730D01*
X-245380Y-34864D01*
X-245567Y-34944D01*
X-246233D01*
G01X-245567D02*
X-245167Y-35717D01*
G01X-243900D02*
X-244113Y-35690D01*
X-244300Y-35584D01*
X-244460Y-35424D01*
X-244567Y-35237D01*
X-244620Y-35024D01*
Y-34810D01*
X-244567Y-34597D01*
X-244460Y-34410D01*
X-244300Y-34250D01*
X-244113Y-34144D01*
X-243900Y-34117D01*
X-243687Y-34144D01*
X-243500Y-34250D01*
X-243340Y-34410D01*
X-243233Y-34597D01*
X-243180Y-34810D01*
Y-35024D01*
X-243233Y-35237D01*
X-243340Y-35424D01*
X-243500Y-35584D01*
X-243687Y-35690D01*
X-243900Y-35717D01*
G01X-242660Y-35504D02*
X-242447Y-35637D01*
X-242207Y-35717D01*
X-241993D01*
X-241780Y-35637D01*
X-241620Y-35504D01*
X-241540Y-35317D01*
X-241593Y-35130D01*
X-241727Y-34970D01*
X-241967Y-34864D01*
X-242287Y-34810D01*
X-242473Y-34704D01*
X-242553Y-34517D01*
X-242500Y-34330D01*
X-242367Y-34197D01*
X-242180Y-34117D01*
X-241993D01*
X-241807Y-34170D01*
X-241647Y-34304D01*
G01X-240860Y-35504D02*
X-240647Y-35637D01*
X-240407Y-35717D01*
X-240193D01*
X-239980Y-35637D01*
X-239820Y-35504D01*
X-239740Y-35317D01*
X-239793Y-35130D01*
X-239927Y-34970D01*
X-240167Y-34864D01*
X-240487Y-34810D01*
X-240673Y-34704D01*
X-240753Y-34517D01*
X-240700Y-34330D01*
X-240567Y-34197D01*
X-240380Y-34117D01*
X-240193D01*
X-240007Y-34170D01*
X-239847Y-34304D01*
G01X-237260Y-35504D02*
X-237047Y-35637D01*
X-236807Y-35717D01*
X-236593D01*
X-236380Y-35637D01*
X-236220Y-35504D01*
X-236140Y-35317D01*
X-236193Y-35130D01*
X-236327Y-34970D01*
X-236567Y-34864D01*
X-236887Y-34810D01*
X-237073Y-34704D01*
X-237153Y-34517D01*
X-237100Y-34330D01*
X-236967Y-34197D01*
X-236780Y-34117D01*
X-236593D01*
X-236407Y-34170D01*
X-236247Y-34304D01*
G01X-234367Y-35717D02*
X-235433D01*
Y-34117D01*
X-234367D01*
G01X-234793Y-34890D02*
X-235433D01*
G01X-232513Y-34250D02*
X-232673Y-34170D01*
X-232860Y-34117D01*
X-233073D01*
X-233313Y-34197D01*
X-233500Y-34330D01*
X-233633Y-34490D01*
X-233740Y-34757D01*
X-233767Y-34997D01*
X-233713Y-35237D01*
X-233633Y-35397D01*
X-233473Y-35557D01*
X-233287Y-35664D01*
X-233100Y-35717D01*
X-232913D01*
X-232727Y-35664D01*
X-232567Y-35584D01*
X-232433Y-35477D01*
G01X-231300Y-34117D02*
Y-35717D01*
G01X-231913Y-34117D02*
X-230687D01*
G01X-229820D02*
X-229180D01*
G01X-229500D02*
Y-35717D01*
G01X-229820D02*
X-229180D01*
G01X-227700D02*
X-227913Y-35690D01*
X-228100Y-35584D01*
X-228260Y-35424D01*
X-228367Y-35237D01*
X-228420Y-35024D01*
Y-34810D01*
X-228367Y-34597D01*
X-228260Y-34410D01*
X-228100Y-34250D01*
X-227913Y-34144D01*
X-227700Y-34117D01*
X-227487Y-34144D01*
X-227300Y-34250D01*
X-227140Y-34410D01*
X-227033Y-34597D01*
X-226980Y-34810D01*
Y-35024D01*
X-227033Y-35237D01*
X-227140Y-35424D01*
X-227300Y-35584D01*
X-227487Y-35690D01*
X-227700Y-35717D01*
G01X-226513D02*
Y-34117D01*
X-225287Y-35717D01*
Y-34117D01*
G01X-221713Y-34250D02*
X-221873Y-34170D01*
X-222060Y-34117D01*
X-222273D01*
X-222513Y-34197D01*
X-222700Y-34330D01*
X-222833Y-34490D01*
X-222940Y-34757D01*
X-222967Y-34997D01*
X-222913Y-35237D01*
X-222833Y-35397D01*
X-222673Y-35557D01*
X-222487Y-35664D01*
X-222300Y-35717D01*
X-222113D01*
X-221927Y-35664D01*
X-221767Y-35584D01*
X-221633Y-35477D01*
G01X-221060Y-35717D02*
Y-34117D01*
G01X-219940D02*
Y-35717D01*
G01Y-34917D02*
X-221060D01*
G01X-219367Y-35717D02*
X-218700Y-34117D01*
X-218033Y-35717D01*
G01X-218273Y-35157D02*
X-219127D01*
G01X-217433Y-35717D02*
Y-34117D01*
X-216767D01*
X-216553Y-34197D01*
X-216420Y-34304D01*
X-216367Y-34517D01*
X-216420Y-34730D01*
X-216580Y-34864D01*
X-216767Y-34944D01*
X-217433D01*
G01X-216767D02*
X-216367Y-35717D01*
G01X-215100Y-34117D02*
Y-35717D01*
G01X-215713Y-34117D02*
X-214487D01*
G01X-261800Y-36250D02*
X-260200D01*
G01X-260000D02*
X-258400D01*
G01X-258200D02*
X-256600D01*
G01X-256400D02*
X-254800D01*
G01X-254600D02*
X-253000D01*
G01X-252800D02*
X-251200D01*
G01X-251000D02*
X-249400D01*
G01X-249200D02*
X-247600D01*
G01X-247400D02*
X-245800D01*
G01X-245600D02*
X-244000D01*
G01X-243800D02*
X-242200D01*
G01X-242000D02*
X-240400D01*
G01X-240200D02*
X-238600D01*
G01X-238400D02*
X-236800D01*
G01X-236600D02*
X-235000D01*
G01X-234800D02*
X-233200D01*
G01X-233000D02*
X-231400D01*
G01X-231200D02*
X-229600D01*
G01X-229400D02*
X-227800D01*
G01X-227600D02*
X-226000D01*
G01X-225800D02*
X-224200D01*
G01X-224000D02*
X-222400D01*
G01X-222200D02*
X-220600D01*
G01X-220400D02*
X-218800D01*
G01X-218600D02*
X-217000D01*
G01X-216800D02*
X-215200D01*
G01X-215000D02*
X-213400D01*
G01X-259200Y-37317D02*
Y-38917D01*
G01X-259813Y-37317D02*
X-258587D01*
G01X-257400Y-38917D02*
X-257613Y-38890D01*
X-257800Y-38784D01*
X-257960Y-38624D01*
X-258067Y-38437D01*
X-258120Y-38224D01*
Y-38010D01*
X-258067Y-37797D01*
X-257960Y-37610D01*
X-257800Y-37450D01*
X-257613Y-37344D01*
X-257400Y-37317D01*
X-257187Y-37344D01*
X-257000Y-37450D01*
X-256840Y-37610D01*
X-256733Y-37797D01*
X-256680Y-38010D01*
Y-38224D01*
X-256733Y-38437D01*
X-256840Y-38624D01*
X-257000Y-38784D01*
X-257187Y-38890D01*
X-257400Y-38917D01*
G01X-255600Y-37317D02*
Y-38917D01*
G01X-256213Y-37317D02*
X-254987D01*
G01X-254467Y-38917D02*
X-253800Y-37317D01*
X-253133Y-38917D01*
G01X-253373Y-38357D02*
X-254227D01*
G01X-252533Y-37317D02*
Y-38917D01*
X-251467D01*
G01X-248400Y-37317D02*
Y-38917D01*
G01X-249013Y-37317D02*
X-247787D01*
G01X-247160Y-38917D02*
Y-37317D01*
G01X-246040D02*
Y-38917D01*
G01Y-38117D02*
X-247160D01*
G01X-245120Y-37317D02*
X-244480D01*
G01X-244800D02*
Y-38917D01*
G01X-245120D02*
X-244480D01*
G01X-242413Y-37450D02*
X-242573Y-37370D01*
X-242760Y-37317D01*
X-242973D01*
X-243213Y-37397D01*
X-243400Y-37530D01*
X-243533Y-37690D01*
X-243640Y-37957D01*
X-243667Y-38197D01*
X-243613Y-38437D01*
X-243533Y-38597D01*
X-243373Y-38757D01*
X-243187Y-38864D01*
X-243000Y-38917D01*
X-242813D01*
X-242627Y-38864D01*
X-242467Y-38784D01*
X-242333Y-38677D01*
G01X-241787Y-38917D02*
Y-37317D01*
G01X-240773D02*
X-241787Y-38304D01*
G01X-240613Y-38917D02*
X-241333Y-37850D01*
G01X-240013Y-38917D02*
Y-37317D01*
X-238787Y-38917D01*
Y-37317D01*
G01X-237067Y-38917D02*
X-238133D01*
Y-37317D01*
X-237067D01*
G01X-237493Y-38090D02*
X-238133D01*
G01X-236360Y-38704D02*
X-236147Y-38837D01*
X-235907Y-38917D01*
X-235693D01*
X-235480Y-38837D01*
X-235320Y-38704D01*
X-235240Y-38517D01*
X-235293Y-38330D01*
X-235427Y-38170D01*
X-235667Y-38064D01*
X-235987Y-38010D01*
X-236173Y-37904D01*
X-236253Y-37717D01*
X-236200Y-37530D01*
X-236067Y-37397D01*
X-235880Y-37317D01*
X-235693D01*
X-235507Y-37370D01*
X-235347Y-37504D01*
G01X-234560Y-38704D02*
X-234347Y-38837D01*
X-234107Y-38917D01*
X-233893D01*
X-233680Y-38837D01*
X-233520Y-38704D01*
X-233440Y-38517D01*
X-233493Y-38330D01*
X-233627Y-38170D01*
X-233867Y-38064D01*
X-234187Y-38010D01*
X-234373Y-37904D01*
X-234453Y-37717D01*
X-234400Y-37530D01*
X-234267Y-37397D01*
X-234080Y-37317D01*
X-233893D01*
X-233707Y-37370D01*
X-233547Y-37504D01*
G01X-230987Y-38677D02*
X-230827Y-38810D01*
X-230640Y-38890D01*
X-230400Y-38917D01*
X-230160Y-38864D01*
X-229973Y-38757D01*
X-229840Y-38570D01*
X-229813Y-38357D01*
X-229867Y-38144D01*
X-230000Y-38010D01*
X-230187Y-37904D01*
X-230373Y-37877D01*
X-230560Y-37904D01*
X-230800Y-38010D01*
X-230720Y-37317D01*
X-230000D01*
G01X-229053Y-38730D02*
X-228867Y-38864D01*
X-228653Y-38917D01*
X-228440Y-38864D01*
X-228253Y-38704D01*
X-228120Y-38464D01*
X-228067Y-38224D01*
Y-37930D01*
X-228120Y-37690D01*
X-228253Y-37477D01*
X-228413Y-37370D01*
X-228600Y-37317D01*
X-228813Y-37370D01*
X-228973Y-37477D01*
X-229080Y-37637D01*
X-229133Y-37850D01*
X-229080Y-38037D01*
X-228947Y-38224D01*
X-228787Y-38330D01*
X-228600Y-38357D01*
X-228387Y-38304D01*
X-228227Y-38170D01*
X-228067Y-37930D01*
G01X-226800Y-38970D02*
X-226853Y-38944D01*
Y-38890D01*
X-226800Y-38864D01*
X-226747Y-38890D01*
Y-38944D01*
X-226800Y-38970D01*
G01X-225000Y-37317D02*
X-225213Y-37370D01*
X-225373Y-37504D01*
X-225480Y-37664D01*
X-225560Y-37877D01*
X-225587Y-38117D01*
X-225560Y-38357D01*
X-225480Y-38570D01*
X-225373Y-38730D01*
X-225213Y-38864D01*
X-225000Y-38917D01*
X-224787Y-38864D01*
X-224627Y-38730D01*
X-224520Y-38570D01*
X-224440Y-38357D01*
X-224413Y-38117D01*
X-224440Y-37877D01*
X-224520Y-37664D01*
X-224627Y-37504D01*
X-224787Y-37370D01*
X-225000Y-37317D01*
G01X-223707Y-38250D02*
X-223520Y-38064D01*
X-223360Y-37957D01*
X-223147Y-37904D01*
X-222960Y-37957D01*
X-222827Y-38064D01*
X-222720Y-38224D01*
X-222693Y-38410D01*
X-222720Y-38570D01*
X-222827Y-38730D01*
X-222987Y-38864D01*
X-223173Y-38917D01*
X-223387Y-38864D01*
X-223573Y-38704D01*
X-223680Y-38464D01*
X-223707Y-38197D01*
X-223653Y-37850D01*
X-223573Y-37664D01*
X-223440Y-37477D01*
X-223253Y-37344D01*
X-223067Y-37317D01*
X-222880Y-37370D01*
X-222747Y-37504D01*
G01X-220293Y-38917D02*
Y-37317D01*
X-219600Y-38650D01*
X-218907Y-37317D01*
Y-38917D01*
G01X-218120Y-37317D02*
X-217480D01*
G01X-217800D02*
Y-38917D01*
G01X-218120D02*
X-217480D01*
G01X-216533Y-37317D02*
Y-38917D01*
X-215467D01*
G01X-240100Y173603D02*
X-241700D01*
X-241380Y173283D01*
G01X-240100D02*
Y173923D01*
G01X-240633Y175056D02*
Y175750D01*
G01X-241433Y176696D02*
X-241593Y176856D01*
X-241673Y177043D01*
X-241700Y177256D01*
X-241647Y177523D01*
X-241513Y177710D01*
X-241353Y177763D01*
X-241193Y177736D01*
X-241060Y177630D01*
X-240793Y177096D01*
X-240607Y176856D01*
X-240340Y176696D01*
X-240100Y176643D01*
Y177763D01*
G01X-205533Y-27720D02*
Y-29320D01*
X-204467D01*
G01X-203707Y-27987D02*
X-203547Y-27827D01*
X-203360Y-27747D01*
X-203147Y-27720D01*
X-202880Y-27773D01*
X-202693Y-27907D01*
X-202640Y-28067D01*
X-202667Y-28227D01*
X-202773Y-28360D01*
X-203307Y-28627D01*
X-203547Y-28813D01*
X-203707Y-29080D01*
X-203760Y-29320D01*
X-202640D01*
G01X-201400Y-29373D02*
X-201453Y-29347D01*
Y-29293D01*
X-201400Y-29267D01*
X-201347Y-29293D01*
Y-29347D01*
X-201400Y-29373D01*
G01Y-28653D02*
X-201453Y-28627D01*
Y-28573D01*
X-201400Y-28547D01*
X-201347Y-28573D01*
Y-28627D01*
X-201400Y-28653D01*
G01X-197587Y-28467D02*
X-197480Y-28387D01*
X-197400Y-28253D01*
X-197347Y-28067D01*
X-197400Y-27907D01*
X-197507Y-27800D01*
X-197693Y-27720D01*
X-198413D01*
Y-29320D01*
X-197533D01*
X-197347Y-29213D01*
X-197240Y-29053D01*
X-197187Y-28867D01*
X-197240Y-28680D01*
X-197400Y-28520D01*
X-197587Y-28467D01*
X-198413D01*
G01X-196000Y-29320D02*
X-196213Y-29293D01*
X-196400Y-29187D01*
X-196560Y-29027D01*
X-196667Y-28840D01*
X-196720Y-28627D01*
Y-28413D01*
X-196667Y-28200D01*
X-196560Y-28013D01*
X-196400Y-27853D01*
X-196213Y-27747D01*
X-196000Y-27720D01*
X-195787Y-27747D01*
X-195600Y-27853D01*
X-195440Y-28013D01*
X-195333Y-28200D01*
X-195280Y-28413D01*
Y-28627D01*
X-195333Y-28840D01*
X-195440Y-29027D01*
X-195600Y-29187D01*
X-195787Y-29293D01*
X-196000Y-29320D01*
G01X-194200Y-27720D02*
Y-29320D01*
G01X-194813Y-27720D02*
X-193587D01*
G01X-192400D02*
Y-29320D01*
G01X-193013Y-27720D02*
X-191787D01*
G01X-190600Y-29320D02*
X-190813Y-29293D01*
X-191000Y-29187D01*
X-191160Y-29027D01*
X-191267Y-28840D01*
X-191320Y-28627D01*
Y-28413D01*
X-191267Y-28200D01*
X-191160Y-28013D01*
X-191000Y-27853D01*
X-190813Y-27747D01*
X-190600Y-27720D01*
X-190387Y-27747D01*
X-190200Y-27853D01*
X-190040Y-28013D01*
X-189933Y-28200D01*
X-189880Y-28413D01*
Y-28627D01*
X-189933Y-28840D01*
X-190040Y-29027D01*
X-190200Y-29187D01*
X-190387Y-29293D01*
X-190600Y-29320D01*
G01X-189493D02*
Y-27720D01*
X-188800Y-29053D01*
X-188107Y-27720D01*
Y-29320D01*
G01X-184613Y-27853D02*
X-184773Y-27773D01*
X-184960Y-27720D01*
X-185173D01*
X-185413Y-27800D01*
X-185600Y-27933D01*
X-185733Y-28093D01*
X-185840Y-28360D01*
X-185867Y-28600D01*
X-185813Y-28840D01*
X-185733Y-29000D01*
X-185573Y-29160D01*
X-185387Y-29267D01*
X-185200Y-29320D01*
X-185013D01*
X-184827Y-29267D01*
X-184667Y-29187D01*
X-184533Y-29080D01*
G01X-183400Y-29320D02*
X-183613Y-29293D01*
X-183800Y-29187D01*
X-183960Y-29027D01*
X-184067Y-28840D01*
X-184120Y-28627D01*
Y-28413D01*
X-184067Y-28200D01*
X-183960Y-28013D01*
X-183800Y-27853D01*
X-183613Y-27747D01*
X-183400Y-27720D01*
X-183187Y-27747D01*
X-183000Y-27853D01*
X-182840Y-28013D01*
X-182733Y-28200D01*
X-182680Y-28413D01*
Y-28627D01*
X-182733Y-28840D01*
X-182840Y-29027D01*
X-183000Y-29187D01*
X-183187Y-29293D01*
X-183400Y-29320D01*
G01X-182213D02*
Y-27720D01*
X-180987Y-29320D01*
Y-27720D01*
G01X-180387Y-29320D02*
Y-27720D01*
X-179853D01*
X-179640Y-27800D01*
X-179480Y-27907D01*
X-179347Y-28067D01*
X-179240Y-28253D01*
X-179213Y-28520D01*
X-179240Y-28787D01*
X-179347Y-28973D01*
X-179480Y-29133D01*
X-179640Y-29240D01*
X-179853Y-29320D01*
X-180387D01*
G01X-178587Y-27720D02*
Y-28867D01*
X-178480Y-29107D01*
X-178267Y-29267D01*
X-178000Y-29320D01*
X-177733Y-29267D01*
X-177520Y-29107D01*
X-177413Y-28867D01*
Y-27720D01*
G01X-175613Y-27853D02*
X-175773Y-27773D01*
X-175960Y-27720D01*
X-176173D01*
X-176413Y-27800D01*
X-176600Y-27933D01*
X-176733Y-28093D01*
X-176840Y-28360D01*
X-176867Y-28600D01*
X-176813Y-28840D01*
X-176733Y-29000D01*
X-176573Y-29160D01*
X-176387Y-29267D01*
X-176200Y-29320D01*
X-176013D01*
X-175827Y-29267D01*
X-175667Y-29187D01*
X-175533Y-29080D01*
G01X-174400Y-27720D02*
Y-29320D01*
G01X-175013Y-27720D02*
X-173787D01*
G01X-172600Y-29320D02*
X-172813Y-29293D01*
X-173000Y-29187D01*
X-173160Y-29027D01*
X-173267Y-28840D01*
X-173320Y-28627D01*
Y-28413D01*
X-173267Y-28200D01*
X-173160Y-28013D01*
X-173000Y-27853D01*
X-172813Y-27747D01*
X-172600Y-27720D01*
X-172387Y-27747D01*
X-172200Y-27853D01*
X-172040Y-28013D01*
X-171933Y-28200D01*
X-171880Y-28413D01*
Y-28627D01*
X-171933Y-28840D01*
X-172040Y-29027D01*
X-172200Y-29187D01*
X-172387Y-29293D01*
X-172600Y-29320D01*
G01X-171333D02*
Y-27720D01*
X-170667D01*
X-170453Y-27800D01*
X-170320Y-27907D01*
X-170267Y-28120D01*
X-170320Y-28333D01*
X-170480Y-28467D01*
X-170667Y-28547D01*
X-171333D01*
G01X-170667D02*
X-170267Y-29320D01*
G01X-167547Y-28787D02*
X-166853D01*
G01X-163013Y-27853D02*
X-163173Y-27773D01*
X-163360Y-27720D01*
X-163573D01*
X-163813Y-27800D01*
X-164000Y-27933D01*
X-164133Y-28093D01*
X-164240Y-28360D01*
X-164267Y-28600D01*
X-164213Y-28840D01*
X-164133Y-29000D01*
X-163973Y-29160D01*
X-163787Y-29267D01*
X-163600Y-29320D01*
X-163413D01*
X-163227Y-29267D01*
X-163067Y-29187D01*
X-162933Y-29080D01*
G01X-161800Y-29320D02*
X-162013Y-29293D01*
X-162200Y-29187D01*
X-162360Y-29027D01*
X-162467Y-28840D01*
X-162520Y-28627D01*
Y-28413D01*
X-162467Y-28200D01*
X-162360Y-28013D01*
X-162200Y-27853D01*
X-162013Y-27747D01*
X-161800Y-27720D01*
X-161587Y-27747D01*
X-161400Y-27853D01*
X-161240Y-28013D01*
X-161133Y-28200D01*
X-161080Y-28413D01*
Y-28627D01*
X-161133Y-28840D01*
X-161240Y-29027D01*
X-161400Y-29187D01*
X-161587Y-29293D01*
X-161800Y-29320D01*
G01X-160533D02*
Y-27720D01*
X-159893D01*
X-159680Y-27800D01*
X-159520Y-27987D01*
X-159467Y-28200D01*
X-159520Y-28413D01*
X-159653Y-28573D01*
X-159893Y-28653D01*
X-160533D01*
G01X-158733Y-29320D02*
Y-27720D01*
X-158093D01*
X-157880Y-27800D01*
X-157720Y-27987D01*
X-157667Y-28200D01*
X-157720Y-28413D01*
X-157853Y-28573D01*
X-158093Y-28653D01*
X-158733D01*
G01X-155867Y-29320D02*
X-156933D01*
Y-27720D01*
X-155867D01*
G01X-156293Y-28493D02*
X-156933D01*
G01X-155133Y-29320D02*
Y-27720D01*
X-154467D01*
X-154253Y-27800D01*
X-154120Y-27907D01*
X-154067Y-28120D01*
X-154120Y-28333D01*
X-154280Y-28467D01*
X-154467Y-28547D01*
X-155133D01*
G01X-154467D02*
X-154067Y-29320D01*
G01X-151000Y-27720D02*
X-151213Y-27773D01*
X-151373Y-27907D01*
X-151480Y-28067D01*
X-151560Y-28280D01*
X-151587Y-28520D01*
X-151560Y-28760D01*
X-151480Y-28973D01*
X-151373Y-29133D01*
X-151213Y-29267D01*
X-151000Y-29320D01*
X-150787Y-29267D01*
X-150627Y-29133D01*
X-150520Y-28973D01*
X-150440Y-28760D01*
X-150413Y-28520D01*
X-150440Y-28280D01*
X-150520Y-28067D01*
X-150627Y-27907D01*
X-150787Y-27773D01*
X-151000Y-27720D01*
G01X-149200Y-29373D02*
X-149253Y-29347D01*
Y-29293D01*
X-149200Y-29267D01*
X-149147Y-29293D01*
Y-29347D01*
X-149200Y-29373D01*
G01X-147453Y-29320D02*
X-147400Y-28973D01*
X-147320Y-28680D01*
X-147213Y-28413D01*
X-147080Y-28120D01*
X-146867Y-27720D01*
X-147933D01*
G01X-145600Y-29320D02*
Y-27720D01*
X-145920Y-28040D01*
G01Y-29320D02*
X-145280D01*
G01X-142693D02*
Y-27720D01*
X-142000Y-29053D01*
X-141307Y-27720D01*
Y-29320D01*
G01X-140520Y-27720D02*
X-139880D01*
G01X-140200D02*
Y-29320D01*
G01X-140520D02*
X-139880D01*
G01X-138933Y-27720D02*
Y-29320D01*
X-137867D01*
G01X-201987Y-31787D02*
X-200813Y-30614D01*
G01X-201400Y-30401D02*
Y-32001D01*
G01X-200813Y-31787D02*
X-201987Y-30614D01*
G01X-202200Y-31201D02*
X-200600D01*
G01X-196560Y-31521D02*
X-196347Y-31654D01*
X-196107Y-31734D01*
X-195893D01*
X-195680Y-31654D01*
X-195520Y-31521D01*
X-195440Y-31334D01*
X-195493Y-31147D01*
X-195627Y-30987D01*
X-195867Y-30881D01*
X-196187Y-30827D01*
X-196373Y-30721D01*
X-196453Y-30534D01*
X-196400Y-30347D01*
X-196267Y-30214D01*
X-196080Y-30134D01*
X-195893D01*
X-195707Y-30187D01*
X-195547Y-30321D01*
G01X-194787Y-30134D02*
Y-31281D01*
X-194680Y-31521D01*
X-194467Y-31681D01*
X-194200Y-31734D01*
X-193933Y-31681D01*
X-193720Y-31521D01*
X-193613Y-31281D01*
Y-30134D01*
G01X-192933Y-31734D02*
Y-30134D01*
X-192267D01*
X-192053Y-30214D01*
X-191920Y-30321D01*
X-191867Y-30534D01*
X-191920Y-30747D01*
X-192080Y-30881D01*
X-192267Y-30961D01*
X-192933D01*
G01X-192267D02*
X-191867Y-31734D01*
G01X-191107D02*
Y-30134D01*
X-190093D01*
G01X-190467Y-30907D02*
X-191107D01*
G01X-189467Y-31734D02*
X-188800Y-30134D01*
X-188133Y-31734D01*
G01X-188373Y-31174D02*
X-189227D01*
G01X-186413Y-30267D02*
X-186573Y-30187D01*
X-186760Y-30134D01*
X-186973D01*
X-187213Y-30214D01*
X-187400Y-30347D01*
X-187533Y-30507D01*
X-187640Y-30774D01*
X-187667Y-31014D01*
X-187613Y-31254D01*
X-187533Y-31414D01*
X-187373Y-31574D01*
X-187187Y-31681D01*
X-187000Y-31734D01*
X-186813D01*
X-186627Y-31681D01*
X-186467Y-31601D01*
X-186333Y-31494D01*
G01X-184667Y-31734D02*
X-185733D01*
Y-30134D01*
X-184667D01*
G01X-185093Y-30907D02*
X-185733D01*
G01X-181947Y-31201D02*
X-181253D01*
G01X-178667Y-31734D02*
X-178000Y-30134D01*
X-177333Y-31734D01*
G01X-177573Y-31174D02*
X-178427D01*
G01X-176520Y-30134D02*
X-175880D01*
G01X-176200D02*
Y-31734D01*
G01X-176520D02*
X-175880D01*
G01X-174933D02*
Y-30134D01*
X-174267D01*
X-174053Y-30214D01*
X-173920Y-30321D01*
X-173867Y-30534D01*
X-173920Y-30747D01*
X-174080Y-30881D01*
X-174267Y-30961D01*
X-174933D01*
G01X-174267D02*
X-173867Y-31734D01*
G01X-170800Y-30134D02*
X-171013Y-30187D01*
X-171173Y-30321D01*
X-171280Y-30481D01*
X-171360Y-30694D01*
X-171387Y-30934D01*
X-171360Y-31174D01*
X-171280Y-31387D01*
X-171173Y-31547D01*
X-171013Y-31681D01*
X-170800Y-31734D01*
X-170587Y-31681D01*
X-170427Y-31547D01*
X-170320Y-31387D01*
X-170240Y-31174D01*
X-170213Y-30934D01*
X-170240Y-30694D01*
X-170320Y-30481D01*
X-170427Y-30321D01*
X-170587Y-30187D01*
X-170800Y-30134D01*
G01X-167893Y-31734D02*
Y-30134D01*
X-167200Y-31467D01*
X-166507Y-30134D01*
Y-31734D01*
G01X-165720Y-30134D02*
X-165080D01*
G01X-165400D02*
Y-31734D01*
G01X-165720D02*
X-165080D01*
G01X-164133Y-30134D02*
Y-31734D01*
X-163067D01*
G01X-201987Y70748D02*
X-200813Y71921D01*
G01X-201400Y72134D02*
Y70534D01*
G01X-200813Y70748D02*
X-201987Y71921D01*
G01X-202200Y71334D02*
X-200600D01*
G01X-196587Y70801D02*
Y72401D01*
X-196053D01*
X-195840Y72321D01*
X-195680Y72214D01*
X-195547Y72054D01*
X-195440Y71868D01*
X-195413Y71601D01*
X-195440Y71334D01*
X-195547Y71148D01*
X-195680Y70988D01*
X-195840Y70881D01*
X-196053Y70801D01*
X-196587D01*
G01X-194520Y72401D02*
X-193880D01*
G01X-194200D02*
Y70801D01*
G01X-194520D02*
X-193880D01*
G01X-191867D02*
X-192933D01*
Y72401D01*
X-191867D01*
G01X-192293Y71628D02*
X-192933D01*
G01X-191133Y72401D02*
Y70801D01*
X-190067D01*
G01X-188267D02*
X-189333D01*
Y72401D01*
X-188267D01*
G01X-188693Y71628D02*
X-189333D01*
G01X-186413Y72268D02*
X-186573Y72348D01*
X-186760Y72401D01*
X-186973D01*
X-187213Y72321D01*
X-187400Y72188D01*
X-187533Y72028D01*
X-187640Y71761D01*
X-187667Y71521D01*
X-187613Y71281D01*
X-187533Y71121D01*
X-187373Y70961D01*
X-187187Y70854D01*
X-187000Y70801D01*
X-186813D01*
X-186627Y70854D01*
X-186467Y70934D01*
X-186333Y71041D01*
G01X-185200Y72401D02*
Y70801D01*
G01X-185813Y72401D02*
X-184587D01*
G01X-183933Y70801D02*
Y72401D01*
X-183267D01*
X-183053Y72321D01*
X-182920Y72214D01*
X-182867Y72001D01*
X-182920Y71788D01*
X-183080Y71654D01*
X-183267Y71574D01*
X-183933D01*
G01X-183267D02*
X-182867Y70801D01*
G01X-181920Y72401D02*
X-181280D01*
G01X-181600D02*
Y70801D01*
G01X-181920D02*
X-181280D01*
G01X-179213Y72268D02*
X-179373Y72348D01*
X-179560Y72401D01*
X-179773D01*
X-180013Y72321D01*
X-180200Y72188D01*
X-180333Y72028D01*
X-180440Y71761D01*
X-180467Y71521D01*
X-180413Y71281D01*
X-180333Y71121D01*
X-180173Y70961D01*
X-179987Y70854D01*
X-179800Y70801D01*
X-179613D01*
X-179427Y70854D01*
X-179267Y70934D01*
X-179133Y71041D01*
G01X-176547Y71334D02*
X-175853D01*
G01X-173107Y70801D02*
Y72401D01*
X-172093D01*
G01X-172467Y71628D02*
X-173107D01*
G01X-171333Y70801D02*
Y72401D01*
X-170667D01*
X-170453Y72321D01*
X-170320Y72214D01*
X-170267Y72001D01*
X-170320Y71788D01*
X-170480Y71654D01*
X-170667Y71574D01*
X-171333D01*
G01X-170667D02*
X-170267Y70801D01*
G01X-169347Y71334D02*
X-168653D01*
G01X-166880Y70801D02*
Y72401D01*
X-167867Y71254D01*
X-166533D01*
G01X-164187Y71041D02*
X-164027Y70908D01*
X-163840Y70828D01*
X-163600Y70801D01*
X-163360Y70854D01*
X-163173Y70961D01*
X-163040Y71148D01*
X-163013Y71361D01*
X-163067Y71574D01*
X-163200Y71708D01*
X-163387Y71814D01*
X-163573Y71841D01*
X-163760Y71814D01*
X-164000Y71708D01*
X-163920Y72401D01*
X-163200D01*
G01X-161853Y70801D02*
X-161800Y71148D01*
X-161720Y71441D01*
X-161613Y71708D01*
X-161480Y72001D01*
X-161267Y72401D01*
X-162333D01*
G01X-160000Y70748D02*
X-160053Y70774D01*
Y70828D01*
X-160000Y70854D01*
X-159947Y70828D01*
Y70774D01*
X-160000Y70748D01*
G01X-158707Y71468D02*
X-158520Y71654D01*
X-158360Y71761D01*
X-158147Y71814D01*
X-157960Y71761D01*
X-157827Y71654D01*
X-157720Y71494D01*
X-157693Y71308D01*
X-157720Y71148D01*
X-157827Y70988D01*
X-157987Y70854D01*
X-158173Y70801D01*
X-158387Y70854D01*
X-158573Y71014D01*
X-158680Y71254D01*
X-158707Y71521D01*
X-158653Y71868D01*
X-158573Y72054D01*
X-158440Y72241D01*
X-158253Y72374D01*
X-158067Y72401D01*
X-157880Y72348D01*
X-157747Y72214D01*
G01X-156080Y70801D02*
Y72401D01*
X-157067Y71254D01*
X-155733D01*
G01X-153493Y70801D02*
Y72401D01*
X-152800Y71068D01*
X-152107Y72401D01*
Y70801D01*
G01X-151320Y72401D02*
X-150680D01*
G01X-151000D02*
Y70801D01*
G01X-151320D02*
X-150680D01*
G01X-149733Y72401D02*
Y70801D01*
X-148667D01*
G01X-201987Y171683D02*
X-200813Y172856D01*
G01X-201400Y173069D02*
Y171469D01*
G01X-200813Y171683D02*
X-201987Y172856D01*
G01X-202200Y172269D02*
X-200600D01*
G01X-196560Y171949D02*
X-196347Y171816D01*
X-196107Y171736D01*
X-195893D01*
X-195680Y171816D01*
X-195520Y171949D01*
X-195440Y172136D01*
X-195493Y172323D01*
X-195627Y172483D01*
X-195867Y172589D01*
X-196187Y172643D01*
X-196373Y172749D01*
X-196453Y172936D01*
X-196400Y173123D01*
X-196267Y173256D01*
X-196080Y173336D01*
X-195893D01*
X-195707Y173283D01*
X-195547Y173149D01*
G01X-194787Y173336D02*
Y172189D01*
X-194680Y171949D01*
X-194467Y171789D01*
X-194200Y171736D01*
X-193933Y171789D01*
X-193720Y171949D01*
X-193613Y172189D01*
Y173336D01*
G01X-192933Y171736D02*
Y173336D01*
X-192267D01*
X-192053Y173256D01*
X-191920Y173149D01*
X-191867Y172936D01*
X-191920Y172723D01*
X-192080Y172589D01*
X-192267Y172509D01*
X-192933D01*
G01X-192267D02*
X-191867Y171736D01*
G01X-191107D02*
Y173336D01*
X-190093D01*
G01X-190467Y172563D02*
X-191107D01*
G01X-189467Y171736D02*
X-188800Y173336D01*
X-188133Y171736D01*
G01X-188373Y172296D02*
X-189227D01*
G01X-186413Y173203D02*
X-186573Y173283D01*
X-186760Y173336D01*
X-186973D01*
X-187213Y173256D01*
X-187400Y173123D01*
X-187533Y172963D01*
X-187640Y172696D01*
X-187667Y172456D01*
X-187613Y172216D01*
X-187533Y172056D01*
X-187373Y171896D01*
X-187187Y171789D01*
X-187000Y171736D01*
X-186813D01*
X-186627Y171789D01*
X-186467Y171869D01*
X-186333Y171976D01*
G01X-184667Y171736D02*
X-185733D01*
Y173336D01*
X-184667D01*
G01X-185093Y172563D02*
X-185733D01*
G01X-181947Y172269D02*
X-181253D01*
G01X-178667Y171736D02*
X-178000Y173336D01*
X-177333Y171736D01*
G01X-177573Y172296D02*
X-178427D01*
G01X-176520Y173336D02*
X-175880D01*
G01X-176200D02*
Y171736D01*
G01X-176520D02*
X-175880D01*
G01X-174933D02*
Y173336D01*
X-174267D01*
X-174053Y173256D01*
X-173920Y173149D01*
X-173867Y172936D01*
X-173920Y172723D01*
X-174080Y172589D01*
X-174267Y172509D01*
X-174933D01*
G01X-174267D02*
X-173867Y171736D01*
G01X-170800Y173336D02*
X-171013Y173283D01*
X-171173Y173149D01*
X-171280Y172989D01*
X-171360Y172776D01*
X-171387Y172536D01*
X-171360Y172296D01*
X-171280Y172083D01*
X-171173Y171923D01*
X-171013Y171789D01*
X-170800Y171736D01*
X-170587Y171789D01*
X-170427Y171923D01*
X-170320Y172083D01*
X-170240Y172296D01*
X-170213Y172536D01*
X-170240Y172776D01*
X-170320Y172989D01*
X-170427Y173149D01*
X-170587Y173283D01*
X-170800Y173336D01*
G01X-167893Y171736D02*
Y173336D01*
X-167200Y172003D01*
X-166507Y173336D01*
Y171736D01*
G01X-165720Y173336D02*
X-165080D01*
G01X-165400D02*
Y171736D01*
G01X-165720D02*
X-165080D01*
G01X-164133Y173336D02*
Y171736D01*
X-163067D01*
G01X-205533Y170670D02*
Y169070D01*
X-204467D01*
G01X-203200D02*
Y170670D01*
X-203520Y170350D01*
G01Y169070D02*
X-202880D01*
G01X-201400Y169017D02*
X-201453Y169043D01*
Y169097D01*
X-201400Y169123D01*
X-201347Y169097D01*
Y169043D01*
X-201400Y169017D01*
G01Y169737D02*
X-201453Y169763D01*
Y169817D01*
X-201400Y169843D01*
X-201347Y169817D01*
Y169763D01*
X-201400Y169737D01*
G01X-197800Y170670D02*
Y169070D01*
G01X-198413Y170670D02*
X-197187D01*
G01X-196000Y169070D02*
X-196213Y169097D01*
X-196400Y169203D01*
X-196560Y169363D01*
X-196667Y169550D01*
X-196720Y169763D01*
Y169977D01*
X-196667Y170190D01*
X-196560Y170377D01*
X-196400Y170537D01*
X-196213Y170643D01*
X-196000Y170670D01*
X-195787Y170643D01*
X-195600Y170537D01*
X-195440Y170377D01*
X-195333Y170190D01*
X-195280Y169977D01*
Y169763D01*
X-195333Y169550D01*
X-195440Y169363D01*
X-195600Y169203D01*
X-195787Y169097D01*
X-196000Y169070D01*
G01X-194733D02*
Y170670D01*
X-194093D01*
X-193880Y170590D01*
X-193720Y170403D01*
X-193667Y170190D01*
X-193720Y169977D01*
X-193853Y169817D01*
X-194093Y169737D01*
X-194733D01*
G01X-190013Y170537D02*
X-190173Y170617D01*
X-190360Y170670D01*
X-190573D01*
X-190813Y170590D01*
X-191000Y170457D01*
X-191133Y170297D01*
X-191240Y170030D01*
X-191267Y169790D01*
X-191213Y169550D01*
X-191133Y169390D01*
X-190973Y169230D01*
X-190787Y169123D01*
X-190600Y169070D01*
X-190413D01*
X-190227Y169123D01*
X-190067Y169203D01*
X-189933Y169310D01*
G01X-188800Y169070D02*
X-189013Y169097D01*
X-189200Y169203D01*
X-189360Y169363D01*
X-189467Y169550D01*
X-189520Y169763D01*
Y169977D01*
X-189467Y170190D01*
X-189360Y170377D01*
X-189200Y170537D01*
X-189013Y170643D01*
X-188800Y170670D01*
X-188587Y170643D01*
X-188400Y170537D01*
X-188240Y170377D01*
X-188133Y170190D01*
X-188080Y169977D01*
Y169763D01*
X-188133Y169550D01*
X-188240Y169363D01*
X-188400Y169203D01*
X-188587Y169097D01*
X-188800Y169070D01*
G01X-187613D02*
Y170670D01*
X-186387Y169070D01*
Y170670D01*
G01X-185787Y169070D02*
Y170670D01*
X-185253D01*
X-185040Y170590D01*
X-184880Y170483D01*
X-184747Y170323D01*
X-184640Y170137D01*
X-184613Y169870D01*
X-184640Y169603D01*
X-184747Y169417D01*
X-184880Y169257D01*
X-185040Y169150D01*
X-185253Y169070D01*
X-185787D01*
G01X-183987Y170670D02*
Y169523D01*
X-183880Y169283D01*
X-183667Y169123D01*
X-183400Y169070D01*
X-183133Y169123D01*
X-182920Y169283D01*
X-182813Y169523D01*
Y170670D01*
G01X-181013Y170537D02*
X-181173Y170617D01*
X-181360Y170670D01*
X-181573D01*
X-181813Y170590D01*
X-182000Y170457D01*
X-182133Y170297D01*
X-182240Y170030D01*
X-182267Y169790D01*
X-182213Y169550D01*
X-182133Y169390D01*
X-181973Y169230D01*
X-181787Y169123D01*
X-181600Y169070D01*
X-181413D01*
X-181227Y169123D01*
X-181067Y169203D01*
X-180933Y169310D01*
G01X-179800Y170670D02*
Y169070D01*
G01X-180413Y170670D02*
X-179187D01*
G01X-178000Y169070D02*
X-178213Y169097D01*
X-178400Y169203D01*
X-178560Y169363D01*
X-178667Y169550D01*
X-178720Y169763D01*
Y169977D01*
X-178667Y170190D01*
X-178560Y170377D01*
X-178400Y170537D01*
X-178213Y170643D01*
X-178000Y170670D01*
X-177787Y170643D01*
X-177600Y170537D01*
X-177440Y170377D01*
X-177333Y170190D01*
X-177280Y169977D01*
Y169763D01*
X-177333Y169550D01*
X-177440Y169363D01*
X-177600Y169203D01*
X-177787Y169097D01*
X-178000Y169070D01*
G01X-176733D02*
Y170670D01*
X-176067D01*
X-175853Y170590D01*
X-175720Y170483D01*
X-175667Y170270D01*
X-175720Y170057D01*
X-175880Y169923D01*
X-176067Y169843D01*
X-176733D01*
G01X-176067D02*
X-175667Y169070D01*
G01X-172947Y169603D02*
X-172253D01*
G01X-168413Y170537D02*
X-168573Y170617D01*
X-168760Y170670D01*
X-168973D01*
X-169213Y170590D01*
X-169400Y170457D01*
X-169533Y170297D01*
X-169640Y170030D01*
X-169667Y169790D01*
X-169613Y169550D01*
X-169533Y169390D01*
X-169373Y169230D01*
X-169187Y169123D01*
X-169000Y169070D01*
X-168813D01*
X-168627Y169123D01*
X-168467Y169203D01*
X-168333Y169310D01*
G01X-167200Y169070D02*
X-167413Y169097D01*
X-167600Y169203D01*
X-167760Y169363D01*
X-167867Y169550D01*
X-167920Y169763D01*
Y169977D01*
X-167867Y170190D01*
X-167760Y170377D01*
X-167600Y170537D01*
X-167413Y170643D01*
X-167200Y170670D01*
X-166987Y170643D01*
X-166800Y170537D01*
X-166640Y170377D01*
X-166533Y170190D01*
X-166480Y169977D01*
Y169763D01*
X-166533Y169550D01*
X-166640Y169363D01*
X-166800Y169203D01*
X-166987Y169097D01*
X-167200Y169070D01*
G01X-165933D02*
Y170670D01*
X-165293D01*
X-165080Y170590D01*
X-164920Y170403D01*
X-164867Y170190D01*
X-164920Y169977D01*
X-165053Y169817D01*
X-165293Y169737D01*
X-165933D01*
G01X-164133Y169070D02*
Y170670D01*
X-163493D01*
X-163280Y170590D01*
X-163120Y170403D01*
X-163067Y170190D01*
X-163120Y169977D01*
X-163253Y169817D01*
X-163493Y169737D01*
X-164133D01*
G01X-161267Y169070D02*
X-162333D01*
Y170670D01*
X-161267D01*
G01X-161693Y169897D02*
X-162333D01*
G01X-160533Y169070D02*
Y170670D01*
X-159867D01*
X-159653Y170590D01*
X-159520Y170483D01*
X-159467Y170270D01*
X-159520Y170057D01*
X-159680Y169923D01*
X-159867Y169843D01*
X-160533D01*
G01X-159867D02*
X-159467Y169070D01*
G01X-156400Y170670D02*
X-156613Y170617D01*
X-156773Y170483D01*
X-156880Y170323D01*
X-156960Y170110D01*
X-156987Y169870D01*
X-156960Y169630D01*
X-156880Y169417D01*
X-156773Y169257D01*
X-156613Y169123D01*
X-156400Y169070D01*
X-156187Y169123D01*
X-156027Y169257D01*
X-155920Y169417D01*
X-155840Y169630D01*
X-155813Y169870D01*
X-155840Y170110D01*
X-155920Y170323D01*
X-156027Y170483D01*
X-156187Y170617D01*
X-156400Y170670D01*
G01X-154600Y169017D02*
X-154653Y169043D01*
Y169097D01*
X-154600Y169123D01*
X-154547Y169097D01*
Y169043D01*
X-154600Y169017D01*
G01X-152853Y169070D02*
X-152800Y169417D01*
X-152720Y169710D01*
X-152613Y169977D01*
X-152480Y170270D01*
X-152267Y170670D01*
X-153333D01*
G01X-151000Y169070D02*
Y170670D01*
X-151320Y170350D01*
G01Y169070D02*
X-150680D01*
G01X-148093D02*
Y170670D01*
X-147400Y169337D01*
X-146707Y170670D01*
Y169070D01*
G01X-145920Y170670D02*
X-145280D01*
G01X-145600D02*
Y169070D01*
G01X-145920D02*
X-145280D01*
G01X-144333Y170670D02*
Y169070D01*
X-143267D01*
G01X291433Y122800D02*
X292100Y124400D01*
X292767Y122800D01*
G01X292527Y123360D02*
X291673D01*
G01X293367Y124400D02*
Y122800D01*
X294433D01*
G01X295167Y124400D02*
Y122800D01*
X296233D01*
G01X298713Y124400D02*
Y123253D01*
X298820Y123013D01*
X299033Y122853D01*
X299300Y122800D01*
X299567Y122853D01*
X299780Y123013D01*
X299887Y123253D01*
Y124400D01*
G01X300487Y122800D02*
Y124400D01*
X301713Y122800D01*
Y124400D01*
G01X302580D02*
X303220D01*
G01X302900D02*
Y122800D01*
G01X302580D02*
X303220D01*
G01X304700Y124400D02*
Y122800D01*
G01X304087Y124400D02*
X305313D01*
G01X305940Y123013D02*
X306153Y122880D01*
X306393Y122800D01*
X306607D01*
X306820Y122880D01*
X306980Y123013D01*
X307060Y123200D01*
X307007Y123387D01*
X306873Y123547D01*
X306633Y123653D01*
X306313Y123707D01*
X306127Y123813D01*
X306047Y124000D01*
X306100Y124187D01*
X306233Y124320D01*
X306420Y124400D01*
X306607D01*
X306793Y124347D01*
X306953Y124213D01*
G01X309433Y122800D02*
X310100Y124400D01*
X310767Y122800D01*
G01X310527Y123360D02*
X309673D01*
G01X311367Y122800D02*
Y124400D01*
X312033D01*
X312247Y124320D01*
X312380Y124213D01*
X312433Y124000D01*
X312380Y123787D01*
X312220Y123653D01*
X312033Y123573D01*
X311367D01*
G01X312033D02*
X312433Y122800D01*
G01X314233D02*
X313167D01*
Y124400D01*
X314233D01*
G01X313807Y123627D02*
X313167D01*
G01X316980Y124400D02*
X317620D01*
G01X317300D02*
Y122800D01*
G01X316980D02*
X317620D01*
G01X318487D02*
Y124400D01*
X319713Y122800D01*
Y124400D01*
G01X322007Y122800D02*
Y124400D01*
X322700Y123067D01*
X323393Y124400D01*
Y122800D01*
G01X324180Y124400D02*
X324820D01*
G01X324500D02*
Y122800D01*
G01X324180D02*
X324820D01*
G01X325767Y124400D02*
Y122800D01*
X326833D01*
G01X327540Y123013D02*
X327753Y122880D01*
X327993Y122800D01*
X328207D01*
X328420Y122880D01*
X328580Y123013D01*
X328660Y123200D01*
X328607Y123387D01*
X328473Y123547D01*
X328233Y123653D01*
X327913Y123707D01*
X327727Y123813D01*
X327647Y124000D01*
X327700Y124187D01*
X327833Y124320D01*
X328020Y124400D01*
X328207D01*
X328393Y124347D01*
X328553Y124213D01*
G01X276893Y119600D02*
Y121200D01*
X277907D01*
G01X277533Y120427D02*
X276893D01*
G01X278880Y121200D02*
X279520D01*
G01X279200D02*
Y119600D01*
G01X278880D02*
X279520D01*
G01X281160Y120400D02*
X281693D01*
Y119920D01*
X281533Y119760D01*
X281347Y119653D01*
X281080Y119600D01*
X280813Y119653D01*
X280627Y119760D01*
X280467Y119920D01*
X280360Y120107D01*
X280307Y120320D01*
Y120507D01*
X280360Y120667D01*
X280467Y120853D01*
X280627Y121013D01*
X280787Y121120D01*
X281000Y121200D01*
X281187D01*
X281400Y121147D01*
X281560Y121040D01*
G01X282213Y121200D02*
Y120053D01*
X282320Y119813D01*
X282533Y119653D01*
X282800Y119600D01*
X283067Y119653D01*
X283280Y119813D01*
X283387Y120053D01*
Y121200D01*
G01X284067Y119600D02*
Y121200D01*
X284733D01*
X284947Y121120D01*
X285080Y121013D01*
X285133Y120800D01*
X285080Y120587D01*
X284920Y120453D01*
X284733Y120373D01*
X284067D01*
G01X284733D02*
X285133Y119600D01*
G01X286933D02*
X285867D01*
Y121200D01*
X286933D01*
G01X286507Y120427D02*
X285867D01*
G01X298640Y119813D02*
X298853Y119680D01*
X299093Y119600D01*
X299307D01*
X299520Y119680D01*
X299680Y119813D01*
X299760Y120000D01*
X299707Y120187D01*
X299573Y120347D01*
X299333Y120453D01*
X299013Y120507D01*
X298827Y120613D01*
X298747Y120800D01*
X298800Y120987D01*
X298933Y121120D01*
X299120Y121200D01*
X299307D01*
X299493Y121147D01*
X299653Y121013D01*
G01X300680Y121200D02*
X301320D01*
G01X301000D02*
Y119600D01*
G01X300680D02*
X301320D01*
G01X302293Y121200D02*
X303307D01*
X302293Y119600D01*
X303307D01*
G01X305133D02*
X304067D01*
Y121200D01*
X305133D01*
G01X304707Y120427D02*
X304067D01*
G01X299200Y114250D02*
Y115850D01*
X298880Y115530D01*
G01Y114250D02*
X299520D01*
G01X300493Y114917D02*
X300680Y115103D01*
X300840Y115210D01*
X301053Y115263D01*
X301240Y115210D01*
X301373Y115103D01*
X301480Y114943D01*
X301507Y114757D01*
X301480Y114597D01*
X301373Y114437D01*
X301213Y114303D01*
X301027Y114250D01*
X300813Y114303D01*
X300627Y114463D01*
X300520Y114703D01*
X300493Y114970D01*
X300547Y115317D01*
X300627Y115503D01*
X300760Y115690D01*
X300947Y115823D01*
X301133Y115850D01*
X301320Y115797D01*
X301453Y115663D01*
G01X302800Y114197D02*
X302747Y114223D01*
Y114277D01*
X302800Y114303D01*
X302853Y114277D01*
Y114223D01*
X302800Y114197D01*
G01X304600Y115850D02*
X304387Y115797D01*
X304227Y115663D01*
X304120Y115503D01*
X304040Y115290D01*
X304013Y115050D01*
X304040Y114810D01*
X304120Y114597D01*
X304227Y114437D01*
X304387Y114303D01*
X304600Y114250D01*
X304813Y114303D01*
X304973Y114437D01*
X305080Y114597D01*
X305160Y114810D01*
X305187Y115050D01*
X305160Y115290D01*
X305080Y115503D01*
X304973Y115663D01*
X304813Y115797D01*
X304600Y115850D01*
G01X287013Y147800D02*
Y149400D01*
X287547D01*
X287760Y149320D01*
X287920Y149213D01*
X288053Y149053D01*
X288160Y148867D01*
X288187Y148600D01*
X288160Y148333D01*
X288053Y148147D01*
X287920Y147987D01*
X287760Y147880D01*
X287547Y147800D01*
X287013D01*
G01X288867D02*
Y149400D01*
X289533D01*
X289747Y149320D01*
X289880Y149213D01*
X289933Y149000D01*
X289880Y148787D01*
X289720Y148653D01*
X289533Y148573D01*
X288867D01*
G01X289533D02*
X289933Y147800D01*
G01X290880Y149400D02*
X291520D01*
G01X291200D02*
Y147800D01*
G01X290880D02*
X291520D01*
G01X292467Y149400D02*
Y147800D01*
X293533D01*
G01X294267Y149400D02*
Y147800D01*
X295333D01*
G01X298987Y149267D02*
X298827Y149347D01*
X298640Y149400D01*
X298427D01*
X298187Y149320D01*
X298000Y149187D01*
X297867Y149027D01*
X297760Y148760D01*
X297733Y148520D01*
X297787Y148280D01*
X297867Y148120D01*
X298027Y147960D01*
X298213Y147853D01*
X298400Y147800D01*
X298587D01*
X298773Y147853D01*
X298933Y147933D01*
X299067Y148040D01*
G01X299640Y147800D02*
Y149400D01*
G01X300760D02*
Y147800D01*
G01Y148600D02*
X299640D01*
G01X301333Y147800D02*
X302000Y149400D01*
X302667Y147800D01*
G01X302427Y148360D02*
X301573D01*
G01X303267Y147800D02*
Y149400D01*
X303933D01*
X304147Y149320D01*
X304280Y149213D01*
X304333Y149000D01*
X304280Y148787D01*
X304120Y148653D01*
X303933Y148573D01*
X303267D01*
G01X303933D02*
X304333Y147800D01*
G01X305600Y149400D02*
Y147800D01*
G01X304987Y149400D02*
X306213D01*
G01X307400Y147747D02*
X307347Y147773D01*
Y147827D01*
X307400Y147853D01*
X307453Y147827D01*
Y147773D01*
X307400Y147747D01*
G01Y148467D02*
X307347Y148493D01*
Y148547D01*
X307400Y148573D01*
X307453Y148547D01*
Y148493D01*
X307400Y148467D01*
G01X311000Y149400D02*
Y147800D01*
G01X310387Y149400D02*
X311613D01*
G01X312800Y147800D02*
X312587Y147827D01*
X312400Y147933D01*
X312240Y148093D01*
X312133Y148280D01*
X312080Y148493D01*
Y148707D01*
X312133Y148920D01*
X312240Y149107D01*
X312400Y149267D01*
X312587Y149373D01*
X312800Y149400D01*
X313013Y149373D01*
X313200Y149267D01*
X313360Y149107D01*
X313467Y148920D01*
X313520Y148707D01*
Y148493D01*
X313467Y148280D01*
X313360Y148093D01*
X313200Y147933D01*
X313013Y147827D01*
X312800Y147800D01*
G01X314067D02*
Y149400D01*
X314707D01*
X314920Y149320D01*
X315080Y149133D01*
X315133Y148920D01*
X315080Y148707D01*
X314947Y148547D01*
X314707Y148467D01*
X314067D01*
G01X318200Y149400D02*
Y147800D01*
G01X317827Y148867D02*
X318573D01*
G01X320000Y147800D02*
X319840Y147827D01*
X319680Y147933D01*
X319573Y148120D01*
X319520Y148333D01*
X319573Y148547D01*
X319680Y148733D01*
X319840Y148840D01*
X320000Y148867D01*
X320160Y148840D01*
X320320Y148733D01*
X320427Y148547D01*
X320453Y148333D01*
X320427Y148120D01*
X320320Y147933D01*
X320160Y147827D01*
X320000Y147800D01*
G01X323813Y148653D02*
X323920Y148733D01*
X324000Y148867D01*
X324053Y149053D01*
X324000Y149213D01*
X323893Y149320D01*
X323707Y149400D01*
X322987D01*
Y147800D01*
X323867D01*
X324053Y147907D01*
X324160Y148067D01*
X324213Y148253D01*
X324160Y148440D01*
X324000Y148600D01*
X323813Y148653D01*
X322987D01*
G01X325400Y147800D02*
X325187Y147827D01*
X325000Y147933D01*
X324840Y148093D01*
X324733Y148280D01*
X324680Y148493D01*
Y148707D01*
X324733Y148920D01*
X324840Y149107D01*
X325000Y149267D01*
X325187Y149373D01*
X325400Y149400D01*
X325613Y149373D01*
X325800Y149267D01*
X325960Y149107D01*
X326067Y148920D01*
X326120Y148707D01*
Y148493D01*
X326067Y148280D01*
X325960Y148093D01*
X325800Y147933D01*
X325613Y147827D01*
X325400Y147800D01*
G01X327200Y149400D02*
Y147800D01*
G01X326587Y149400D02*
X327813D01*
G01X329000D02*
Y147800D01*
G01X328387Y149400D02*
X329613D01*
G01X330800Y147800D02*
X330587Y147827D01*
X330400Y147933D01*
X330240Y148093D01*
X330133Y148280D01*
X330080Y148493D01*
Y148707D01*
X330133Y148920D01*
X330240Y149107D01*
X330400Y149267D01*
X330587Y149373D01*
X330800Y149400D01*
X331013Y149373D01*
X331200Y149267D01*
X331360Y149107D01*
X331467Y148920D01*
X331520Y148707D01*
Y148493D01*
X331467Y148280D01*
X331360Y148093D01*
X331200Y147933D01*
X331013Y147827D01*
X330800Y147800D01*
G01X331907D02*
Y149400D01*
X332600Y148067D01*
X333293Y149400D01*
Y147800D01*
G01X319567Y119600D02*
Y121200D01*
X320207D01*
X320420Y121120D01*
X320580Y120933D01*
X320633Y120720D01*
X320580Y120507D01*
X320447Y120347D01*
X320207Y120267D01*
X319567D01*
G01X321367Y121200D02*
Y119600D01*
X322433D01*
G01X323033D02*
X323700Y121200D01*
X324367Y119600D01*
G01X324127Y120160D02*
X323273D01*
G01X325500Y121200D02*
Y119600D01*
G01X324887Y121200D02*
X326113D01*
G01X327833Y119600D02*
X326767D01*
Y121200D01*
X327833D01*
G01X327407Y120427D02*
X326767D01*
G01X328513Y119600D02*
Y121200D01*
X329047D01*
X329260Y121120D01*
X329420Y121013D01*
X329553Y120853D01*
X329660Y120667D01*
X329687Y120400D01*
X329660Y120133D01*
X329553Y119947D01*
X329420Y119787D01*
X329260Y119680D01*
X329047Y119600D01*
X328513D01*
G01X319567Y114250D02*
Y115850D01*
X320207D01*
X320420Y115770D01*
X320580Y115583D01*
X320633Y115370D01*
X320580Y115157D01*
X320447Y114997D01*
X320207Y114917D01*
X319567D01*
G01X321367Y115850D02*
Y114250D01*
X322433D01*
G01X323033D02*
X323700Y115850D01*
X324367Y114250D01*
G01X324127Y114810D02*
X323273D01*
G01X325500Y115850D02*
Y114250D01*
G01X324887Y115850D02*
X326113D01*
G01X327833Y114250D02*
X326767D01*
Y115850D01*
X327833D01*
G01X327407Y115077D02*
X326767D01*
G01X328513Y114250D02*
Y115850D01*
X329047D01*
X329260Y115770D01*
X329420Y115663D01*
X329553Y115503D01*
X329660Y115317D01*
X329687Y115050D01*
X329660Y114783D01*
X329553Y114597D01*
X329420Y114437D01*
X329260Y114330D01*
X329047Y114250D01*
X328513D01*
G01X337400Y119600D02*
X337187Y119627D01*
X337000Y119733D01*
X336840Y119893D01*
X336733Y120080D01*
X336680Y120293D01*
Y120507D01*
X336733Y120720D01*
X336840Y120907D01*
X337000Y121067D01*
X337187Y121173D01*
X337400Y121200D01*
X337613Y121173D01*
X337800Y121067D01*
X337960Y120907D01*
X338067Y120720D01*
X338120Y120507D01*
Y120293D01*
X338067Y120080D01*
X337960Y119893D01*
X337800Y119733D01*
X337613Y119627D01*
X337400Y119600D01*
G01X337613Y120027D02*
X337933Y119600D01*
G01X339200Y121200D02*
Y119600D01*
G01X338587Y121200D02*
X339813D01*
G01X341000Y119600D02*
Y120320D01*
X340467Y121200D01*
G01X341533D02*
X341000Y120320D01*
G01X337793Y115583D02*
X337953Y115743D01*
X338140Y115823D01*
X338353Y115850D01*
X338620Y115797D01*
X338807Y115663D01*
X338860Y115503D01*
X338833Y115343D01*
X338727Y115210D01*
X338193Y114943D01*
X337953Y114757D01*
X337793Y114490D01*
X337740Y114250D01*
X338860D01*
G01X340100Y115850D02*
X339887Y115797D01*
X339727Y115663D01*
X339620Y115503D01*
X339540Y115290D01*
X339513Y115050D01*
X339540Y114810D01*
X339620Y114597D01*
X339727Y114437D01*
X339887Y114303D01*
X340100Y114250D01*
X340313Y114303D01*
X340473Y114437D01*
X340580Y114597D01*
X340660Y114810D01*
X340687Y115050D01*
X340660Y115290D01*
X340580Y115503D01*
X340473Y115663D01*
X340313Y115797D01*
X340100Y115850D01*
G54D13*
G01X-267600Y-27187D02*
Y168789D01*
X-207600D01*
Y-27187D01*
X-267600D01*
G01X0Y0D02*
Y157480D01*
X157480D01*
Y0D01*
X0D01*
G01Y167480D02*
Y181200D01*
G01X74525Y171200D02*
X0D01*
G01X15000Y173700D02*
X0Y171200D01*
X15000Y168700D01*
Y173700D01*
G01X77200Y169950D02*
Y172450D01*
X76880Y171950D01*
G01Y169950D02*
X77520D01*
G01X79400Y169867D02*
X79347Y169908D01*
Y169992D01*
X79400Y170033D01*
X79453Y169992D01*
Y169908D01*
X79400Y169867D01*
G01X81013Y170325D02*
X81173Y170117D01*
X81360Y169992D01*
X81600Y169950D01*
X81840Y170033D01*
X82027Y170200D01*
X82160Y170492D01*
X82187Y170825D01*
X82133Y171158D01*
X82000Y171367D01*
X81813Y171533D01*
X81627Y171575D01*
X81440Y171533D01*
X81200Y171367D01*
X81280Y172450D01*
X82000D01*
G01X83747Y169950D02*
X83800Y170492D01*
X83880Y170950D01*
X83987Y171367D01*
X84120Y171825D01*
X84333Y172450D01*
X83267D01*
G01X86475Y171200D02*
X157480D01*
G01X142480Y168700D02*
X157480Y171200D01*
X142480Y173700D01*
Y168700D01*
G01X167480Y0D02*
X187000D01*
G01X177000Y81875D02*
Y0D01*
G01X174500Y15000D02*
X177000Y0D01*
X179500Y15000D01*
X174500D01*
G01X173700Y83750D02*
Y86250D01*
X173380Y85750D01*
G01Y83750D02*
X174020D01*
G01X175900Y83667D02*
X175847Y83708D01*
Y83792D01*
X175900Y83833D01*
X175953Y83792D01*
Y83708D01*
X175900Y83667D01*
G01X177513Y84125D02*
X177673Y83917D01*
X177860Y83792D01*
X178100Y83750D01*
X178340Y83833D01*
X178527Y84000D01*
X178660Y84292D01*
X178687Y84625D01*
X178633Y84958D01*
X178500Y85167D01*
X178313Y85333D01*
X178127Y85375D01*
X177940Y85333D01*
X177700Y85167D01*
X177780Y86250D01*
X178500D01*
G01X180247Y83750D02*
X180300Y84292D01*
X180380Y84750D01*
X180487Y85167D01*
X180620Y85625D01*
X180833Y86250D01*
X179767D01*
G01X177000Y88125D02*
Y157480D01*
G01X167480D02*
X187000D01*
G01X179500Y142480D02*
X177000Y157480D01*
X174500Y142480D01*
X179500D01*
G01X157480Y167480D02*
Y181200D01*
G01X275500Y111300D02*
Y150200D01*
X344700D01*
Y111300D01*
X275500D01*
G01Y125200D02*
X344700D01*
G01X275500Y122000D02*
X344700D01*
G01X275500Y118800D02*
X344700D01*
G01X288300Y122000D02*
Y111300D01*
G01X315500Y122000D02*
Y111300D01*
G01X333700Y122000D02*
Y111300D01*
M02*
