G04 ================== begin FILE IDENTIFICATION RECORD ==================*
G04 Layout Name:  SCHEMAX7_v2.brd*
G04 Film Name:    SMTOP*
G04 File Format:  Gerber RS274X*
G04 File Origin:  Cadence Allegro 16.6-2015-S059*
G04 Origin Date:  Sat Dec 10 23:32:18 2022*
G04 *
G04 Layer:  VIA CLASS/SOLDERMASK_TOP*
G04 Layer:  PIN/SOLDERMASK_TOP*
G04 Layer:  PACKAGE GEOMETRY/SOLDERMASK_TOP*
G04 Layer:  DRC ERROR CLASS/SOLDERMASK_TOP*
G04 Layer:  BOARD GEOMETRY/SOLDERMASK_TOP*
G04 *
G04 Offset:    (0.00 0.00)*
G04 Mirror:    No*
G04 Mode:      Positive*
G04 Rotation:  0*
G04 FullContactRelief:  No*
G04 UndefLineWidth:     5.00*
G04 ================== end FILE IDENTIFICATION RECORD ====================*
%FSLAX25Y25*MOIN*%
%IR0*IPPOS*OFA0.00000B0.00000*MIA0B0*SFA1.00000B1.00000*%
%ADD10R,.09X.13*%
%ADD18C,.04*%
%ADD17C,.08*%
%ADD12C,.09*%
%ADD20R,.05X.05*%
%ADD11R,.06X.06*%
%ADD23R,.062X.062*%
%ADD13R,.046X.06*%
%ADD21R,.06X.046*%
%ADD22R,.089X.062*%
%ADD19R,.048X.076*%
%ADD16R,.076X.048*%
%ADD14R,.058X.086*%
%ADD15R,.086X.058*%
%LPD*%
G75*
G54D10*
X31800Y13400D03*
X21800D03*
X60400Y146200D03*
X50400D03*
X80900Y146500D03*
X90900D03*
G54D11*
X16800Y41900D03*
Y50300D03*
Y69700D03*
Y61300D03*
X26600Y52000D03*
X35000D03*
X38900Y70200D03*
X13000Y102900D03*
X21400D03*
X57100Y13400D03*
X45000D03*
X57100Y21800D03*
X45000D03*
X49300Y52000D03*
X57700D03*
X47300Y70200D03*
X68000Y103000D03*
X59600D03*
X60400Y120200D03*
X52000D03*
Y130600D03*
X60400D03*
X85200Y13500D03*
X98300D03*
X85200Y21900D03*
X98300D03*
X92500Y70100D03*
X88500Y103000D03*
X80100D03*
X100900Y70100D03*
X114100Y103800D03*
X105700D03*
X126600Y95000D03*
X103800Y79200D03*
X114100Y113300D03*
X105700D03*
X135000Y95000D03*
X147200Y146500D03*
X138800D03*
X147200Y137000D03*
X138800D03*
G54D20*
X92500Y58800D03*
X100900D03*
X112200Y79200D03*
G54D21*
X88400Y83300D03*
Y91000D03*
X80400Y87100D03*
X112100Y87300D03*
Y95000D03*
X104100Y91100D03*
X138900Y65600D03*
Y57900D03*
X146900Y61800D03*
G54D12*
X29800Y33900D03*
X47300Y83000D03*
X92600Y41900D03*
X126700Y126300D03*
X123600Y113900D03*
G54D22*
X117728Y29556D03*
X110172Y146544D03*
G54D13*
X20700Y91400D03*
X13000D03*
X16900Y83400D03*
X49300Y41900D03*
X41600D03*
X45500Y33900D03*
X65200Y41900D03*
X57500D03*
X61400Y33900D03*
X60300Y83000D03*
X68000D03*
X64100Y91000D03*
X74800Y33900D03*
X82500D03*
X78600Y41900D03*
X82400Y58800D03*
X74700D03*
X78600Y50800D03*
X146600Y45800D03*
X138900D03*
X142800Y37800D03*
X131200Y74800D03*
X138900D03*
X135000Y82800D03*
G54D14*
X34700Y103100D03*
X79300Y120200D03*
X146900Y126300D03*
X139000Y113900D03*
G54D23*
X122255Y51800D03*
X113200D03*
X105645Y124300D03*
X114700D03*
G54D15*
X34700Y83000D03*
X70100Y13500D03*
G54D16*
X34700Y90900D03*
X70100Y21400D03*
G54D17*
X20000Y140000D03*
X140000Y20000D03*
G54D18*
X67500Y31900D03*
X66200Y47500D03*
X52700Y91100D03*
X52200Y110500D03*
X85200Y28100D03*
X68500Y52000D03*
X96000Y91100D03*
X74400Y94400D03*
X79600Y131300D03*
X70100Y144800D03*
X127000Y13500D03*
X99100Y49900D03*
X123600Y103800D03*
X120800Y79200D03*
X126900Y138000D03*
X142800Y27800D03*
X150700Y32200D03*
X131600Y65600D03*
X137900Y104600D03*
X131800Y104400D03*
G54D19*
X42600Y103100D03*
X71400Y120200D03*
X139000Y126300D03*
X146900Y113900D03*
M02*
