G04 ================== begin FILE IDENTIFICATION RECORD ==================*
G04 Layout Name:  SCHEMAX7_v2.brd*
G04 Film Name:    SPTOP*
G04 File Format:  Gerber RS274X*
G04 File Origin:  Cadence Allegro 16.6-2015-S059*
G04 Origin Date:  Sat Dec 10 23:39:16 2022*
G04 *
G04 Layer:  VIA CLASS/PASTEMASK_TOP*
G04 Layer:  PIN/PASTEMASK_TOP*
G04 Layer:  PACKAGE GEOMETRY/PASTEMASK_TOP*
G04 Layer:  DRC ERROR CLASS/PASTEMASK_TOP*
G04 *
G04 Offset:    (0.00 0.00)*
G04 Mirror:    No*
G04 Mode:      Positive*
G04 Rotation:  0*
G04 FullContactRelief:  No*
G04 UndefLineWidth:     5.00*
G04 ================== end FILE IDENTIFICATION RECORD ====================*
%FSLAX25Y25*MOIN*%
%IR0*IPPOS*OFA0.00000B0.00000*MIA0B0*SFA1.00000B1.00000*%
%ADD15C,.036*%
%ADD17R,.05X.05*%
%ADD10R,.045X.045*%
%ADD20R,.0468X.0468*%
%ADD11R,.0324X.045*%
%ADD18R,.045X.0324*%
%ADD16R,.048X.076*%
%ADD14R,.076X.048*%
%ADD19R,.0702X.0468*%
%ADD12R,.0432X.0684*%
%ADD13R,.0684X.0432*%
%LPD*%
G75*
G54D10*
X16800Y41900D03*
Y50300D03*
Y69700D03*
Y61300D03*
X26600Y52000D03*
X35000D03*
X38900Y70200D03*
X13000Y102900D03*
X21400D03*
X57100Y13400D03*
X45000D03*
X57100Y21800D03*
X45000D03*
X49300Y52000D03*
X57700D03*
X47300Y70200D03*
X68000Y103000D03*
X59600D03*
X60400Y120200D03*
X52000D03*
Y130600D03*
X60400D03*
X85200Y13500D03*
X98300D03*
X85200Y21900D03*
X98300D03*
X92500Y70100D03*
X88500Y103000D03*
X80100D03*
X100900Y70100D03*
X114100Y103800D03*
X105700D03*
X126600Y95000D03*
X103800Y79200D03*
X114100Y113300D03*
X105700D03*
X135000Y95000D03*
X147200Y146500D03*
X138800D03*
X147200Y137000D03*
X138800D03*
G54D11*
X20700Y91400D03*
X13000D03*
X16900Y83400D03*
X49300Y41900D03*
X41600D03*
X45500Y33900D03*
X65200Y41900D03*
X57500D03*
X61400Y33900D03*
X60300Y83000D03*
X68000D03*
X64100Y91000D03*
X74800Y33900D03*
X82500D03*
X78600Y41900D03*
X82400Y58800D03*
X74700D03*
X78600Y50800D03*
X146600Y45800D03*
X138900D03*
X142800Y37800D03*
X131200Y74800D03*
X138900D03*
X135000Y82800D03*
G54D20*
X122255Y51800D03*
X113200D03*
X105645Y124300D03*
X114700D03*
G54D12*
X34700Y103100D03*
X79300Y120200D03*
X146900Y126300D03*
X139000Y113900D03*
G54D13*
X34700Y83000D03*
X70100Y13500D03*
G54D14*
X34700Y90900D03*
X70100Y21400D03*
G54D15*
X20000Y140000D03*
X140000Y20000D03*
G54D16*
X42600Y103100D03*
X71400Y120200D03*
X139000Y126300D03*
X146900Y113900D03*
G54D17*
X92500Y58800D03*
X100900D03*
X112200Y79200D03*
G54D18*
X88400Y83300D03*
Y91000D03*
X80400Y87100D03*
X112100Y87300D03*
Y95000D03*
X104100Y91100D03*
X138900Y65600D03*
Y57900D03*
X146900Y61800D03*
G54D19*
X117728Y29556D03*
X110172Y146544D03*
M02*
