G04 ================== begin FILE IDENTIFICATION RECORD ==================*
G04 Layout Name:  SCHEMAX7_v2.brd*
G04 Film Name:    SSTOP*
G04 File Format:  Gerber RS274X*
G04 File Origin:  Cadence Allegro 16.6-2015-S059*
G04 Origin Date:  Wed Dec 14 15:23:01 2022*
G04 *
G04 Layer:  TOLERANCE/SILKSCREEN_TOP*
G04 Layer:  REF DES/SILKSCREEN_TOP*
G04 Layer:  PACKAGE GEOMETRY/SILKSCREEN_TOP*
G04 Layer:  COMPONENT VALUE/SILKSCREEN_TOP*
G04 Layer:  BOARD GEOMETRY/SILKSCREEN_TOP*
G04 *
G04 Offset:    (0.00 0.00)*
G04 Mirror:    No*
G04 Mode:      Positive*
G04 Rotation:  0*
G04 FullContactRelief:  No*
G04 UndefLineWidth:     8.00*
G04 ================== end FILE IDENTIFICATION RECORD ====================*
%FSLAX25Y25*MOIN*%
%IR0*IPPOS*OFA0.00000B0.00000*MIA0B0*SFA1.00000B1.00000*%
%ADD10C,.003*%
%ADD11C,.008*%
%ADD12C,.005*%
%ADD13C,.006*%
%ADD14C,.00787*%
G75*
%LPD*%
G75*
G54D10*
G01X17300Y6900D02*
Y19900D01*
X26300D01*
Y6900D01*
X17300D01*
G01X27300D02*
Y20000D01*
X36300D01*
Y6800D01*
X27300D01*
Y6900D01*
G01X15400Y90500D02*
X18300D01*
G01X10600Y88400D02*
Y84400D01*
X14500D01*
G01X19300D02*
X23200D01*
Y88400D01*
G01X44600Y41000D02*
X46800D01*
G01X39100Y38900D02*
Y34900D01*
X43100D01*
G01X48000D02*
X51800D01*
Y38900D01*
G01X55100D02*
Y34900D01*
X59000D01*
G01X63800D02*
X67700D01*
Y39000D01*
G01X59900Y40900D02*
X62800D01*
G01X65600Y84000D02*
X62700D01*
G01X57900Y86000D02*
Y90100D01*
X61700D01*
G01X45900Y139800D02*
Y152800D01*
X54900D01*
Y139600D01*
X45900D01*
Y139800D01*
G01X55900Y139700D02*
Y152800D01*
X64900D01*
Y139700D01*
X55900D01*
G01X77200Y34900D02*
X80100D01*
G01X72400Y37000D02*
Y40900D01*
X76200D01*
G01X81000Y41000D02*
X84900D01*
Y37000D01*
G01X72300Y55900D02*
Y51800D01*
X76200D01*
G01X80100Y57800D02*
X77100D01*
G01X81000Y51800D02*
X84900D01*
Y55800D01*
G01X66500Y90000D02*
X70400D01*
Y86000D01*
G01X81400Y89500D02*
Y93400D01*
X85400D01*
G01X87400Y85600D02*
Y88600D01*
G01X81400Y84800D02*
Y80900D01*
X85400D01*
G01X76400Y140000D02*
Y153000D01*
X85400D01*
Y140000D01*
X76400D01*
G01X86400D02*
Y153000D01*
X95400D01*
Y139900D01*
X86400D01*
Y140000D01*
G01X105200Y93600D02*
Y97500D01*
X109000D01*
G01X111100Y89700D02*
Y92500D01*
G01X105000Y88800D02*
Y84900D01*
X109100D01*
G01X136500Y42900D02*
Y38800D01*
X140400D01*
G01X145200D02*
X149000D01*
Y42800D01*
G01X144200Y44800D02*
X141300D01*
G01X139900Y60400D02*
Y63200D01*
G01X141900Y55600D02*
X145900D01*
Y59400D01*
G01X141800Y68100D02*
X146000D01*
Y64200D01*
G01X136500Y75800D02*
X133600D01*
G01X128700Y77800D02*
Y81800D01*
X132600D01*
G01X137500Y81900D02*
X141300D01*
Y77800D01*
G54D11*
G01X24800Y28900D02*
Y38900D01*
X34800D01*
Y28900D01*
X24800D01*
G01X42300Y78000D02*
Y88000D01*
X52300D01*
Y78000D01*
X42300D01*
G01X87600Y36900D02*
Y46900D01*
X97600D01*
Y36900D01*
X87600D01*
G01X121700Y121300D02*
Y131300D01*
X131700D01*
Y121300D01*
X121700D01*
G01X118600Y108900D02*
Y118900D01*
X128600D01*
Y108900D01*
X118600D01*
G54D12*
G01X5360Y132600D02*
X5893D01*
Y132120D01*
X5733Y131960D01*
X5547Y131853D01*
X5280Y131800D01*
X5013Y131853D01*
X4827Y131960D01*
X4667Y132120D01*
X4560Y132307D01*
X4507Y132520D01*
Y132707D01*
X4560Y132867D01*
X4667Y133053D01*
X4827Y133213D01*
X4987Y133320D01*
X5200Y133400D01*
X5387D01*
X5600Y133347D01*
X5760Y133240D01*
G01X6333Y131800D02*
X7000Y133400D01*
X7667Y131800D01*
G01X7427Y132360D02*
X6573D01*
G01X8213Y133400D02*
Y132253D01*
X8320Y132013D01*
X8533Y131853D01*
X8800Y131800D01*
X9067Y131853D01*
X9280Y132013D01*
X9387Y132253D01*
Y133400D01*
G01X10067Y132120D02*
X10200Y131960D01*
X10360Y131853D01*
X10547Y131800D01*
X10760Y131853D01*
X10920Y131960D01*
X11080Y132120D01*
X11133Y132333D01*
Y133400D01*
G01X11733Y131800D02*
X12400Y133400D01*
X13067Y131800D01*
G01X12827Y132360D02*
X11973D01*
G01X13587Y131800D02*
Y133400D01*
X14813Y131800D01*
Y133400D01*
G01X16533Y131800D02*
X15467D01*
Y133400D01*
X16533D01*
G01X16107Y132627D02*
X15467D01*
G01X17133Y131800D02*
X17800Y133400D01*
X18467Y131800D01*
G01X18227Y132360D02*
X17373D01*
G01X18987Y131800D02*
Y133400D01*
X20213Y131800D01*
Y133400D01*
G01X20813D02*
Y132253D01*
X20920Y132013D01*
X21133Y131853D01*
X21400Y131800D01*
X21667Y131853D01*
X21880Y132013D01*
X21987Y132253D01*
Y133400D01*
G01X24387Y131800D02*
Y133400D01*
X25613Y131800D01*
Y133400D01*
G01X26480D02*
X27120D01*
G01X26800D02*
Y131800D01*
G01X26480D02*
X27120D01*
G01X29187Y133267D02*
X29027Y133347D01*
X28840Y133400D01*
X28627D01*
X28387Y133320D01*
X28200Y133187D01*
X28067Y133027D01*
X27960Y132760D01*
X27933Y132520D01*
X27987Y132280D01*
X28067Y132120D01*
X28227Y131960D01*
X28413Y131853D01*
X28600Y131800D01*
X28787D01*
X28973Y131853D01*
X29133Y131933D01*
X29267Y132040D01*
G01X30400Y131800D02*
X30187Y131827D01*
X30000Y131933D01*
X29840Y132093D01*
X29733Y132280D01*
X29680Y132493D01*
Y132707D01*
X29733Y132920D01*
X29840Y133107D01*
X30000Y133267D01*
X30187Y133373D01*
X30400Y133400D01*
X30613Y133373D01*
X30800Y133267D01*
X30960Y133107D01*
X31067Y132920D01*
X31120Y132707D01*
Y132493D01*
X31067Y132280D01*
X30960Y132093D01*
X30800Y131933D01*
X30613Y131827D01*
X30400Y131800D01*
G01X31667Y133400D02*
Y131800D01*
X32733D01*
G01X34533D02*
X33467D01*
Y133400D01*
X34533D01*
G01X34107Y132627D02*
X33467D01*
G01X35800Y133400D02*
Y131800D01*
G01X35187Y133400D02*
X36413D01*
G01X36933Y131800D02*
X37600Y133400D01*
X38267Y131800D01*
G01X38027Y132360D02*
X37173D01*
G01X5620Y128200D02*
Y129800D01*
X4633Y128653D01*
X5967D01*
G01X6513Y128520D02*
X6673Y128333D01*
X6887Y128227D01*
X7127Y128200D01*
X7340Y128227D01*
X7553Y128360D01*
X7687Y128520D01*
X7713Y128680D01*
X7660Y128867D01*
X7473Y129000D01*
X7287Y129053D01*
X7047D01*
G01X7287D02*
X7447Y129133D01*
X7580Y129267D01*
X7633Y129427D01*
X7580Y129587D01*
X7447Y129720D01*
X7207Y129800D01*
X6967Y129773D01*
X6727Y129667D01*
G01X8313Y128520D02*
X8473Y128333D01*
X8687Y128227D01*
X8927Y128200D01*
X9140Y128227D01*
X9353Y128360D01*
X9487Y128520D01*
X9513Y128680D01*
X9460Y128867D01*
X9273Y129000D01*
X9087Y129053D01*
X8847D01*
G01X9087D02*
X9247Y129133D01*
X9380Y129267D01*
X9433Y129427D01*
X9380Y129587D01*
X9247Y129720D01*
X9007Y129800D01*
X8767Y129773D01*
X8527Y129667D01*
G01X11233Y128200D02*
X10167D01*
Y129800D01*
X11233D01*
G01X10807Y129027D02*
X10167D01*
G01X12153Y128733D02*
X12847D01*
G01X13607Y128200D02*
Y129800D01*
X14300Y128467D01*
X14993Y129800D01*
Y128200D01*
G01X16100D02*
X15887Y128227D01*
X15700Y128333D01*
X15540Y128493D01*
X15433Y128680D01*
X15380Y128893D01*
Y129107D01*
X15433Y129320D01*
X15540Y129507D01*
X15700Y129667D01*
X15887Y129773D01*
X16100Y129800D01*
X16313Y129773D01*
X16500Y129667D01*
X16660Y129507D01*
X16767Y129320D01*
X16820Y129107D01*
Y128893D01*
X16767Y128680D01*
X16660Y128493D01*
X16500Y128333D01*
X16313Y128227D01*
X16100Y128200D01*
G01X17287D02*
Y129800D01*
X18513Y128200D01*
Y129800D01*
G01X4767Y124300D02*
Y125900D01*
X5407D01*
X5620Y125820D01*
X5780Y125633D01*
X5833Y125420D01*
X5780Y125207D01*
X5647Y125047D01*
X5407Y124967D01*
X4767D01*
G01X6567Y124300D02*
Y125900D01*
X7233D01*
X7447Y125820D01*
X7580Y125713D01*
X7633Y125500D01*
X7580Y125287D01*
X7420Y125153D01*
X7233Y125073D01*
X6567D01*
G01X7233D02*
X7633Y124300D01*
G01X8900D02*
X8687Y124327D01*
X8500Y124433D01*
X8340Y124593D01*
X8233Y124780D01*
X8180Y124993D01*
Y125207D01*
X8233Y125420D01*
X8340Y125607D01*
X8500Y125767D01*
X8687Y125873D01*
X8900Y125900D01*
X9113Y125873D01*
X9300Y125767D01*
X9460Y125607D01*
X9567Y125420D01*
X9620Y125207D01*
Y124993D01*
X9567Y124780D01*
X9460Y124593D01*
X9300Y124433D01*
X9113Y124327D01*
X8900Y124300D01*
G01X10380Y125900D02*
X11020D01*
G01X10700D02*
Y124300D01*
G01X10380D02*
X11020D01*
G01X13033D02*
X11967D01*
Y125900D01*
X13033D01*
G01X12607Y125127D02*
X11967D01*
G01X14887Y125767D02*
X14727Y125847D01*
X14540Y125900D01*
X14327D01*
X14087Y125820D01*
X13900Y125687D01*
X13767Y125527D01*
X13660Y125260D01*
X13633Y125020D01*
X13687Y124780D01*
X13767Y124620D01*
X13927Y124460D01*
X14113Y124353D01*
X14300Y124300D01*
X14487D01*
X14673Y124353D01*
X14833Y124433D01*
X14967Y124540D01*
G01X16100Y125900D02*
Y124300D01*
G01X15487Y125900D02*
X16713D01*
G01X19700Y124300D02*
Y125900D01*
X19380Y125580D01*
G01Y124300D02*
X20020D01*
G01X22713D02*
Y125900D01*
X23247D01*
X23460Y125820D01*
X23620Y125713D01*
X23753Y125553D01*
X23860Y125367D01*
X23887Y125100D01*
X23860Y124833D01*
X23753Y124647D01*
X23620Y124487D01*
X23460Y124380D01*
X23247Y124300D01*
X22713D01*
G01X25687Y125767D02*
X25527Y125847D01*
X25340Y125900D01*
X25127D01*
X24887Y125820D01*
X24700Y125687D01*
X24567Y125527D01*
X24460Y125260D01*
X24433Y125020D01*
X24487Y124780D01*
X24567Y124620D01*
X24727Y124460D01*
X24913Y124353D01*
X25100Y124300D01*
X25287D01*
X25473Y124353D01*
X25633Y124433D01*
X25767Y124540D01*
G01X27433Y124300D02*
X26367D01*
Y125900D01*
X27433D01*
G01X27007Y125127D02*
X26367D01*
G01X11233Y13100D02*
X11400Y12900D01*
X11600Y12767D01*
X11833Y12700D01*
X12100Y12767D01*
X12300Y12900D01*
X12500Y13100D01*
X12567Y13367D01*
Y14700D01*
G01X13467Y14367D02*
X13667Y14567D01*
X13900Y14667D01*
X14167Y14700D01*
X14500Y14633D01*
X14733Y14467D01*
X14800Y14267D01*
X14767Y14067D01*
X14633Y13900D01*
X13967Y13567D01*
X13667Y13333D01*
X13467Y13000D01*
X13400Y12700D01*
X14800D01*
G01X19700Y22600D02*
X20367D01*
Y22000D01*
X20167Y21800D01*
X19933Y21667D01*
X19600Y21600D01*
X19267Y21667D01*
X19033Y21800D01*
X18833Y22000D01*
X18700Y22233D01*
X18633Y22500D01*
Y22733D01*
X18700Y22933D01*
X18833Y23167D01*
X19033Y23367D01*
X19233Y23500D01*
X19500Y23600D01*
X19733D01*
X20000Y23533D01*
X20200Y23400D01*
G01X20933Y21600D02*
Y23600D01*
X22467Y21600D01*
Y23600D01*
G01X23167Y21600D02*
Y23600D01*
X23833D01*
X24100Y23500D01*
X24300Y23367D01*
X24467Y23167D01*
X24600Y22933D01*
X24633Y22600D01*
X24600Y22267D01*
X24467Y22033D01*
X24300Y21833D01*
X24100Y21700D01*
X23833Y21600D01*
X23167D01*
G01X28767Y23500D02*
X29600Y21500D01*
X30433Y23500D01*
G01X32467Y21500D02*
X31133D01*
Y23500D01*
X32467D01*
G01X31933Y22533D02*
X31133D01*
G01X34667Y21500D02*
X33333D01*
Y23500D01*
X34667D01*
G01X34133Y22533D02*
X33333D01*
G01X15733Y34900D02*
Y36900D01*
X16567D01*
X16833Y36800D01*
X17000Y36667D01*
X17067Y36400D01*
X17000Y36133D01*
X16800Y35967D01*
X16567Y35867D01*
X15733D01*
G01X16567D02*
X17067Y34900D01*
G01X18600D02*
Y36900D01*
X18200Y36500D01*
G01Y34900D02*
X19000D01*
G01X27833Y26400D02*
X28000Y26200D01*
X28200Y26067D01*
X28433Y26000D01*
X28700Y26067D01*
X28900Y26200D01*
X29100Y26400D01*
X29167Y26667D01*
Y28000D01*
G01X31100Y26000D02*
Y28000D01*
X29867Y26567D01*
X31533D01*
G01X7933Y64900D02*
Y66900D01*
X8767D01*
X9033Y66800D01*
X9200Y66667D01*
X9267Y66400D01*
X9200Y66133D01*
X9000Y65967D01*
X8767Y65867D01*
X7933D01*
G01X8767D02*
X9267Y64900D01*
G01X10167Y66567D02*
X10367Y66767D01*
X10600Y66867D01*
X10867Y66900D01*
X11200Y66833D01*
X11433Y66667D01*
X11500Y66467D01*
X11467Y66267D01*
X11333Y66100D01*
X10667Y65767D01*
X10367Y65533D01*
X10167Y65200D01*
X10100Y64900D01*
X11500D01*
G01X27733Y57300D02*
Y59300D01*
X28567D01*
X28833Y59200D01*
X29000Y59067D01*
X29067Y58800D01*
X29000Y58533D01*
X28800Y58367D01*
X28567Y58267D01*
X27733D01*
G01X28567D02*
X29067Y57300D01*
G01X30600D02*
Y59300D01*
X30200Y58900D01*
G01Y57300D02*
X31000D01*
G01X32167Y58967D02*
X32367Y59167D01*
X32600Y59267D01*
X32867Y59300D01*
X33200Y59233D01*
X33433Y59067D01*
X33500Y58867D01*
X33467Y58667D01*
X33333Y58500D01*
X32667Y58167D01*
X32367Y57933D01*
X32167Y57600D01*
X32100Y57300D01*
X33500D01*
G01X15500Y76900D02*
X15233Y76933D01*
X15000Y77067D01*
X14800Y77267D01*
X14667Y77500D01*
X14600Y77767D01*
Y78033D01*
X14667Y78300D01*
X14800Y78533D01*
X15000Y78733D01*
X15233Y78867D01*
X15500Y78900D01*
X15767Y78867D01*
X16000Y78733D01*
X16200Y78533D01*
X16333Y78300D01*
X16400Y78033D01*
Y77767D01*
X16333Y77500D01*
X16200Y77267D01*
X16000Y77067D01*
X15767Y76933D01*
X15500Y76900D01*
G01X15767Y77433D02*
X16167Y76900D01*
G01X16967Y77200D02*
X17167Y77033D01*
X17400Y76933D01*
X17700Y76900D01*
X18000Y76967D01*
X18233Y77100D01*
X18400Y77333D01*
X18433Y77600D01*
X18367Y77867D01*
X18200Y78033D01*
X17967Y78167D01*
X17733Y78200D01*
X17500Y78167D01*
X17200Y78033D01*
X17300Y78900D01*
X18200D01*
G01X33067Y77100D02*
Y75667D01*
X33200Y75367D01*
X33467Y75167D01*
X33800Y75100D01*
X34133Y75167D01*
X34400Y75367D01*
X34533Y75667D01*
Y77100D01*
G01X35367Y76767D02*
X35567Y76967D01*
X35800Y77067D01*
X36067Y77100D01*
X36400Y77033D01*
X36633Y76867D01*
X36700Y76667D01*
X36667Y76467D01*
X36533Y76300D01*
X35867Y75967D01*
X35567Y75733D01*
X35367Y75400D01*
X35300Y75100D01*
X36700D01*
G01X28993Y125933D02*
X29153Y126093D01*
X29340Y126173D01*
X29553Y126200D01*
X29820Y126147D01*
X30007Y126013D01*
X30060Y125853D01*
X30033Y125693D01*
X29927Y125560D01*
X29393Y125293D01*
X29153Y125107D01*
X28993Y124840D01*
X28940Y124600D01*
X30060D01*
G01X31300Y126200D02*
X31087Y126147D01*
X30927Y126013D01*
X30820Y125853D01*
X30740Y125640D01*
X30713Y125400D01*
X30740Y125160D01*
X30820Y124947D01*
X30927Y124787D01*
X31087Y124653D01*
X31300Y124600D01*
X31513Y124653D01*
X31673Y124787D01*
X31780Y124947D01*
X31860Y125160D01*
X31887Y125400D01*
X31860Y125640D01*
X31780Y125853D01*
X31673Y126013D01*
X31513Y126147D01*
X31300Y126200D01*
G01X32593Y125933D02*
X32753Y126093D01*
X32940Y126173D01*
X33153Y126200D01*
X33420Y126147D01*
X33607Y126013D01*
X33660Y125853D01*
X33633Y125693D01*
X33527Y125560D01*
X32993Y125293D01*
X32753Y125107D01*
X32593Y124840D01*
X32540Y124600D01*
X33660D01*
G01X34393Y125933D02*
X34553Y126093D01*
X34740Y126173D01*
X34953Y126200D01*
X35220Y126147D01*
X35407Y126013D01*
X35460Y125853D01*
X35433Y125693D01*
X35327Y125560D01*
X34793Y125293D01*
X34553Y125107D01*
X34393Y124840D01*
X34340Y124600D01*
X35460D01*
G01X36353Y125133D02*
X37047D01*
G01X37993Y125933D02*
X38153Y126093D01*
X38340Y126173D01*
X38553Y126200D01*
X38820Y126147D01*
X39007Y126013D01*
X39060Y125853D01*
X39033Y125693D01*
X38927Y125560D01*
X38393Y125293D01*
X38153Y125107D01*
X37993Y124840D01*
X37940Y124600D01*
X39060D01*
G01X40300Y126200D02*
X40087Y126147D01*
X39927Y126013D01*
X39820Y125853D01*
X39740Y125640D01*
X39713Y125400D01*
X39740Y125160D01*
X39820Y124947D01*
X39927Y124787D01*
X40087Y124653D01*
X40300Y124600D01*
X40513Y124653D01*
X40673Y124787D01*
X40780Y124947D01*
X40860Y125160D01*
X40887Y125400D01*
X40860Y125640D01*
X40780Y125853D01*
X40673Y126013D01*
X40513Y126147D01*
X40300Y126200D01*
G01X41593Y125933D02*
X41753Y126093D01*
X41940Y126173D01*
X42153Y126200D01*
X42420Y126147D01*
X42607Y126013D01*
X42660Y125853D01*
X42633Y125693D01*
X42527Y125560D01*
X41993Y125293D01*
X41753Y125107D01*
X41593Y124840D01*
X41540Y124600D01*
X42660D01*
G01X43313Y124920D02*
X43473Y124733D01*
X43687Y124627D01*
X43927Y124600D01*
X44140Y124627D01*
X44353Y124760D01*
X44487Y124920D01*
X44513Y125080D01*
X44460Y125267D01*
X44273Y125400D01*
X44087Y125453D01*
X43847D01*
G01X44087D02*
X44247Y125533D01*
X44380Y125667D01*
X44433Y125827D01*
X44380Y125987D01*
X44247Y126120D01*
X44007Y126200D01*
X43767Y126173D01*
X43527Y126067D01*
G01X15733Y107900D02*
Y109900D01*
X16567D01*
X16833Y109800D01*
X17000Y109667D01*
X17067Y109400D01*
X17000Y109133D01*
X16800Y108967D01*
X16567Y108867D01*
X15733D01*
G01X16567D02*
X17067Y107900D01*
G01X17867Y108300D02*
X18067Y108067D01*
X18333Y107933D01*
X18633Y107900D01*
X18900Y107933D01*
X19167Y108100D01*
X19333Y108300D01*
X19367Y108500D01*
X19300Y108733D01*
X19067Y108900D01*
X18833Y108967D01*
X18533D01*
G01X18833D02*
X19033Y109067D01*
X19200Y109233D01*
X19267Y109433D01*
X19200Y109633D01*
X19033Y109800D01*
X18733Y109900D01*
X18433Y109867D01*
X18133Y109733D01*
G01X54533Y5600D02*
Y7600D01*
X55367D01*
X55633Y7500D01*
X55800Y7367D01*
X55867Y7100D01*
X55800Y6833D01*
X55600Y6667D01*
X55367Y6567D01*
X54533D01*
G01X55367D02*
X55867Y5600D01*
G01X56767Y7267D02*
X56967Y7467D01*
X57200Y7567D01*
X57467Y7600D01*
X57800Y7533D01*
X58033Y7367D01*
X58100Y7167D01*
X58067Y6967D01*
X57933Y6800D01*
X57267Y6467D01*
X56967Y6233D01*
X56767Y5900D01*
X56700Y5600D01*
X58100D01*
G01X59600D02*
Y7600D01*
X59200Y7200D01*
G01Y5600D02*
X60000D01*
G01X42133Y6000D02*
Y8000D01*
X42967D01*
X43233Y7900D01*
X43400Y7767D01*
X43467Y7500D01*
X43400Y7233D01*
X43200Y7067D01*
X42967Y6967D01*
X42133D01*
G01X42967D02*
X43467Y6000D01*
G01X44367Y7667D02*
X44567Y7867D01*
X44800Y7967D01*
X45067Y8000D01*
X45400Y7933D01*
X45633Y7767D01*
X45700Y7567D01*
X45667Y7367D01*
X45533Y7200D01*
X44867Y6867D01*
X44567Y6633D01*
X44367Y6300D01*
X44300Y6000D01*
X45700D01*
G01X46567Y7667D02*
X46767Y7867D01*
X47000Y7967D01*
X47267Y8000D01*
X47600Y7933D01*
X47833Y7767D01*
X47900Y7567D01*
X47867Y7367D01*
X47733Y7200D01*
X47067Y6867D01*
X46767Y6633D01*
X46567Y6300D01*
X46500Y6000D01*
X47900D01*
G01X44200Y27400D02*
X43933Y27433D01*
X43700Y27567D01*
X43500Y27767D01*
X43367Y28000D01*
X43300Y28267D01*
Y28533D01*
X43367Y28800D01*
X43500Y29033D01*
X43700Y29233D01*
X43933Y29367D01*
X44200Y29400D01*
X44467Y29367D01*
X44700Y29233D01*
X44900Y29033D01*
X45033Y28800D01*
X45100Y28533D01*
Y28267D01*
X45033Y28000D01*
X44900Y27767D01*
X44700Y27567D01*
X44467Y27433D01*
X44200Y27400D01*
G01X44467Y27933D02*
X44867Y27400D01*
G01X46400D02*
Y29400D01*
X46000Y29000D01*
G01Y27400D02*
X46800D01*
G01X60500D02*
X60233Y27433D01*
X60000Y27567D01*
X59800Y27767D01*
X59667Y28000D01*
X59600Y28267D01*
Y28533D01*
X59667Y28800D01*
X59800Y29033D01*
X60000Y29233D01*
X60233Y29367D01*
X60500Y29400D01*
X60767Y29367D01*
X61000Y29233D01*
X61200Y29033D01*
X61333Y28800D01*
X61400Y28533D01*
Y28267D01*
X61333Y28000D01*
X61200Y27767D01*
X61000Y27567D01*
X60767Y27433D01*
X60500Y27400D01*
G01X60767Y27933D02*
X61167Y27400D01*
G01X61967Y27800D02*
X62167Y27567D01*
X62433Y27433D01*
X62733Y27400D01*
X63000Y27433D01*
X63267Y27600D01*
X63433Y27800D01*
X63467Y28000D01*
X63400Y28233D01*
X63167Y28400D01*
X62933Y28467D01*
X62633D01*
G01X62933D02*
X63133Y28567D01*
X63300Y28733D01*
X63367Y28933D01*
X63300Y29133D01*
X63133Y29300D01*
X62833Y29400D01*
X62533Y29367D01*
X62233Y29233D01*
G01X50533Y57300D02*
Y59300D01*
X51367D01*
X51633Y59200D01*
X51800Y59067D01*
X51867Y58800D01*
X51800Y58533D01*
X51600Y58367D01*
X51367Y58267D01*
X50533D01*
G01X51367D02*
X51867Y57300D01*
G01X53400D02*
Y59300D01*
X53000Y58900D01*
G01Y57300D02*
X53800D01*
G01X54867Y57700D02*
X55067Y57467D01*
X55333Y57333D01*
X55633Y57300D01*
X55900Y57333D01*
X56167Y57500D01*
X56333Y57700D01*
X56367Y57900D01*
X56300Y58133D01*
X56067Y58300D01*
X55833Y58367D01*
X55533D01*
G01X55833D02*
X56033Y58467D01*
X56200Y58633D01*
X56267Y58833D01*
X56200Y59033D01*
X56033Y59200D01*
X55733Y59300D01*
X55433Y59267D01*
X55133Y59133D01*
G01X40833Y62700D02*
Y64700D01*
X41667D01*
X41933Y64600D01*
X42100Y64467D01*
X42167Y64200D01*
X42100Y63933D01*
X41900Y63767D01*
X41667Y63667D01*
X40833D01*
G01X41667D02*
X42167Y62700D01*
G01X43133Y62933D02*
X43367Y62767D01*
X43633Y62700D01*
X43900Y62767D01*
X44133Y62967D01*
X44300Y63267D01*
X44367Y63567D01*
Y63933D01*
X44300Y64233D01*
X44133Y64500D01*
X43933Y64633D01*
X43700Y64700D01*
X43433Y64633D01*
X43233Y64500D01*
X43100Y64300D01*
X43033Y64033D01*
X43100Y63800D01*
X43267Y63567D01*
X43467Y63433D01*
X43700Y63400D01*
X43967Y63467D01*
X44167Y63633D01*
X44367Y63933D01*
G01X63600Y75200D02*
X63333Y75233D01*
X63100Y75367D01*
X62900Y75567D01*
X62767Y75800D01*
X62700Y76067D01*
Y76333D01*
X62767Y76600D01*
X62900Y76833D01*
X63100Y77033D01*
X63333Y77167D01*
X63600Y77200D01*
X63867Y77167D01*
X64100Y77033D01*
X64300Y76833D01*
X64433Y76600D01*
X64500Y76333D01*
Y76067D01*
X64433Y75800D01*
X64300Y75567D01*
X64100Y75367D01*
X63867Y75233D01*
X63600Y75200D01*
G01X63867Y75733D02*
X64267Y75200D01*
G01X65167Y76033D02*
X65400Y76267D01*
X65600Y76400D01*
X65867Y76467D01*
X66100Y76400D01*
X66267Y76267D01*
X66400Y76067D01*
X66433Y75833D01*
X66400Y75633D01*
X66267Y75433D01*
X66067Y75267D01*
X65833Y75200D01*
X65567Y75267D01*
X65333Y75467D01*
X65200Y75767D01*
X65167Y76100D01*
X65233Y76533D01*
X65333Y76767D01*
X65500Y77000D01*
X65733Y77167D01*
X65967Y77200D01*
X66200Y77133D01*
X66367Y76967D01*
G01X45533Y89100D02*
X45700Y88900D01*
X45900Y88767D01*
X46133Y88700D01*
X46400Y88767D01*
X46600Y88900D01*
X46800Y89100D01*
X46867Y89367D01*
Y90700D01*
G01X48333Y88700D02*
X48400Y89133D01*
X48500Y89500D01*
X48633Y89833D01*
X48800Y90200D01*
X49067Y90700D01*
X47733D01*
G01X53933Y113200D02*
Y115200D01*
X54767D01*
X55033Y115100D01*
X55200Y114967D01*
X55267Y114700D01*
X55200Y114433D01*
X55000Y114267D01*
X54767Y114167D01*
X53933D01*
G01X54767D02*
X55267Y113200D01*
G01X56800D02*
Y115200D01*
X56400Y114800D01*
G01Y113200D02*
X57200D01*
G01X58433Y113433D02*
X58667Y113267D01*
X58933Y113200D01*
X59200Y113267D01*
X59433Y113467D01*
X59600Y113767D01*
X59667Y114067D01*
Y114433D01*
X59600Y114733D01*
X59433Y115000D01*
X59233Y115133D01*
X59000Y115200D01*
X58733Y115133D01*
X58533Y115000D01*
X58400Y114800D01*
X58333Y114533D01*
X58400Y114300D01*
X58567Y114067D01*
X58767Y113933D01*
X59000Y113900D01*
X59267Y113967D01*
X59467Y114133D01*
X59667Y114433D01*
G01X65433Y129700D02*
Y131700D01*
X66267D01*
X66533Y131600D01*
X66700Y131467D01*
X66767Y131200D01*
X66700Y130933D01*
X66500Y130767D01*
X66267Y130667D01*
X65433D01*
G01X66267D02*
X66767Y129700D01*
G01X67667Y131367D02*
X67867Y131567D01*
X68100Y131667D01*
X68367Y131700D01*
X68700Y131633D01*
X68933Y131467D01*
X69000Y131267D01*
X68967Y131067D01*
X68833Y130900D01*
X68167Y130567D01*
X67867Y130333D01*
X67667Y130000D01*
X67600Y129700D01*
X69000D01*
G01X70500Y131700D02*
X70233Y131633D01*
X70033Y131467D01*
X69900Y131267D01*
X69800Y131000D01*
X69767Y130700D01*
X69800Y130400D01*
X69900Y130133D01*
X70033Y129933D01*
X70233Y129767D01*
X70500Y129700D01*
X70767Y129767D01*
X70967Y129933D01*
X71100Y130133D01*
X71200Y130400D01*
X71233Y130700D01*
X71200Y131000D01*
X71100Y131267D01*
X70967Y131467D01*
X70767Y131633D01*
X70500Y131700D01*
G01X61033Y107800D02*
Y109800D01*
X61867D01*
X62133Y109700D01*
X62300Y109567D01*
X62367Y109300D01*
X62300Y109033D01*
X62100Y108867D01*
X61867Y108767D01*
X61033D01*
G01X61867D02*
X62367Y107800D01*
G01X63900D02*
Y109800D01*
X63500Y109400D01*
G01Y107800D02*
X64300D01*
G01X66100Y109800D02*
X65833Y109733D01*
X65633Y109567D01*
X65500Y109367D01*
X65400Y109100D01*
X65367Y108800D01*
X65400Y108500D01*
X65500Y108233D01*
X65633Y108033D01*
X65833Y107867D01*
X66100Y107800D01*
X66367Y107867D01*
X66567Y108033D01*
X66700Y108233D01*
X66800Y108500D01*
X66833Y108800D01*
X66800Y109100D01*
X66700Y109367D01*
X66567Y109567D01*
X66367Y109733D01*
X66100Y109800D01*
G01X36567Y111200D02*
Y109767D01*
X36700Y109467D01*
X36967Y109267D01*
X37300Y109200D01*
X37633Y109267D01*
X37900Y109467D01*
X38033Y109767D01*
Y111200D01*
G01X39500Y109200D02*
Y111200D01*
X39100Y110800D01*
G01Y109200D02*
X39900D01*
G01X48400Y137500D02*
X49067D01*
Y136900D01*
X48867Y136700D01*
X48633Y136567D01*
X48300Y136500D01*
X47967Y136567D01*
X47733Y136700D01*
X47533Y136900D01*
X47400Y137133D01*
X47333Y137400D01*
Y137633D01*
X47400Y137833D01*
X47533Y138067D01*
X47733Y138267D01*
X47933Y138400D01*
X48200Y138500D01*
X48433D01*
X48700Y138433D01*
X48900Y138300D01*
G01X49633Y136500D02*
Y138500D01*
X51167Y136500D01*
Y138500D01*
G01X51867Y136500D02*
Y138500D01*
X52533D01*
X52800Y138400D01*
X53000Y138267D01*
X53167Y138067D01*
X53300Y137833D01*
X53333Y137500D01*
X53300Y137167D01*
X53167Y136933D01*
X53000Y136733D01*
X52800Y136600D01*
X52533Y136500D01*
X51867D01*
G01X57567Y138600D02*
X58400Y136600D01*
X59233Y138600D01*
G01X61333Y138433D02*
X61133Y138533D01*
X60900Y138600D01*
X60633D01*
X60333Y138500D01*
X60100Y138333D01*
X59933Y138133D01*
X59800Y137800D01*
X59767Y137500D01*
X59833Y137200D01*
X59933Y137000D01*
X60133Y136800D01*
X60367Y136667D01*
X60600Y136600D01*
X60833D01*
X61067Y136667D01*
X61267Y136767D01*
X61433Y136900D01*
G01X63533Y138433D02*
X63333Y138533D01*
X63100Y138600D01*
X62833D01*
X62533Y138500D01*
X62300Y138333D01*
X62133Y138133D01*
X62000Y137800D01*
X61967Y137500D01*
X62033Y137200D01*
X62133Y137000D01*
X62333Y136800D01*
X62567Y136667D01*
X62800Y136600D01*
X63033D01*
X63267Y136667D01*
X63467Y136767D01*
X63633Y136900D01*
G01X41233Y148700D02*
X41400Y148500D01*
X41600Y148367D01*
X41833Y148300D01*
X42100Y148367D01*
X42300Y148500D01*
X42500Y148700D01*
X42567Y148967D01*
Y150300D01*
G01X44100Y148300D02*
Y150300D01*
X43700Y149900D01*
G01Y148300D02*
X44500D01*
G01X83733Y5800D02*
Y7800D01*
X84567D01*
X84833Y7700D01*
X85000Y7567D01*
X85067Y7300D01*
X85000Y7033D01*
X84800Y6867D01*
X84567Y6767D01*
X83733D01*
G01X84567D02*
X85067Y5800D01*
G01X87000D02*
Y7800D01*
X85767Y6367D01*
X87433D01*
G01X96433Y5900D02*
Y7900D01*
X97267D01*
X97533Y7800D01*
X97700Y7667D01*
X97767Y7400D01*
X97700Y7133D01*
X97500Y6967D01*
X97267Y6867D01*
X96433D01*
G01X97267D02*
X97767Y5900D01*
G01X98567Y6200D02*
X98767Y6033D01*
X99000Y5933D01*
X99300Y5900D01*
X99600Y5967D01*
X99833Y6100D01*
X100000Y6333D01*
X100033Y6600D01*
X99967Y6867D01*
X99800Y7033D01*
X99567Y7167D01*
X99333Y7200D01*
X99100Y7167D01*
X98800Y7033D01*
X98900Y7900D01*
X99800D01*
G01X68667Y5600D02*
Y7600D01*
X69333D01*
X69600Y7500D01*
X69800Y7367D01*
X69967Y7167D01*
X70100Y6933D01*
X70133Y6600D01*
X70100Y6267D01*
X69967Y6033D01*
X69800Y5833D01*
X69600Y5700D01*
X69333Y5600D01*
X68667D01*
G01X70967Y7267D02*
X71167Y7467D01*
X71400Y7567D01*
X71667Y7600D01*
X72000Y7533D01*
X72233Y7367D01*
X72300Y7167D01*
X72267Y6967D01*
X72133Y6800D01*
X71467Y6467D01*
X71167Y6233D01*
X70967Y5900D01*
X70900Y5600D01*
X72300D01*
G01X77800Y27600D02*
X77533Y27633D01*
X77300Y27767D01*
X77100Y27967D01*
X76967Y28200D01*
X76900Y28467D01*
Y28733D01*
X76967Y29000D01*
X77100Y29233D01*
X77300Y29433D01*
X77533Y29567D01*
X77800Y29600D01*
X78067Y29567D01*
X78300Y29433D01*
X78500Y29233D01*
X78633Y29000D01*
X78700Y28733D01*
Y28467D01*
X78633Y28200D01*
X78500Y27967D01*
X78300Y27767D01*
X78067Y27633D01*
X77800Y27600D01*
G01X78067Y28133D02*
X78467Y27600D01*
G01X80400D02*
Y29600D01*
X79167Y28167D01*
X80833D01*
G01X77400Y64900D02*
X77133Y64933D01*
X76900Y65067D01*
X76700Y65267D01*
X76567Y65500D01*
X76500Y65767D01*
Y66033D01*
X76567Y66300D01*
X76700Y66533D01*
X76900Y66733D01*
X77133Y66867D01*
X77400Y66900D01*
X77667Y66867D01*
X77900Y66733D01*
X78100Y66533D01*
X78233Y66300D01*
X78300Y66033D01*
Y65767D01*
X78233Y65500D01*
X78100Y65267D01*
X77900Y65067D01*
X77667Y64933D01*
X77400Y64900D01*
G01X77667Y65433D02*
X78067Y64900D01*
G01X78967Y66567D02*
X79167Y66767D01*
X79400Y66867D01*
X79667Y66900D01*
X80000Y66833D01*
X80233Y66667D01*
X80300Y66467D01*
X80267Y66267D01*
X80133Y66100D01*
X79467Y65767D01*
X79167Y65533D01*
X78967Y65200D01*
X78900Y64900D01*
X80300D01*
G01X84500Y94300D02*
X84233Y94333D01*
X84000Y94467D01*
X83800Y94667D01*
X83667Y94900D01*
X83600Y95167D01*
Y95433D01*
X83667Y95700D01*
X83800Y95933D01*
X84000Y96133D01*
X84233Y96267D01*
X84500Y96300D01*
X84767Y96267D01*
X85000Y96133D01*
X85200Y95933D01*
X85333Y95700D01*
X85400Y95433D01*
Y95167D01*
X85333Y94900D01*
X85200Y94667D01*
X85000Y94467D01*
X84767Y94333D01*
X84500Y94300D01*
G01X84767Y94833D02*
X85167Y94300D01*
G01X86700D02*
X86933Y94333D01*
X87200Y94433D01*
X87367Y94600D01*
X87433Y94833D01*
X87367Y95067D01*
X87167Y95267D01*
X86867Y95367D01*
X86533D01*
X86333Y95433D01*
X86167Y95600D01*
X86100Y95833D01*
X86200Y96067D01*
X86433Y96233D01*
X86700Y96300D01*
X86967Y96233D01*
X87200Y96067D01*
X87300Y95833D01*
X87233Y95600D01*
X87067Y95433D01*
X86867Y95367D01*
X86533D01*
X86233Y95267D01*
X86033Y95067D01*
X85967Y94833D01*
X86033Y94600D01*
X86200Y94433D01*
X86467Y94333D01*
X86700Y94300D01*
G01X94933Y102700D02*
Y104700D01*
X95767D01*
X96033Y104600D01*
X96200Y104467D01*
X96267Y104200D01*
X96200Y103933D01*
X96000Y103767D01*
X95767Y103667D01*
X94933D01*
G01X95767D02*
X96267Y102700D01*
G01X97800D02*
Y104700D01*
X97400Y104300D01*
G01Y102700D02*
X98200D01*
G01X99267Y103000D02*
X99467Y102833D01*
X99700Y102733D01*
X100000Y102700D01*
X100300Y102767D01*
X100533Y102900D01*
X100700Y103133D01*
X100733Y103400D01*
X100667Y103667D01*
X100500Y103833D01*
X100267Y103967D01*
X100033Y104000D01*
X99800Y103967D01*
X99500Y103833D01*
X99600Y104700D01*
X100500D01*
G01X96333Y80033D02*
X96133Y80133D01*
X95900Y80200D01*
X95633D01*
X95333Y80100D01*
X95100Y79933D01*
X94933Y79733D01*
X94800Y79400D01*
X94767Y79100D01*
X94833Y78800D01*
X94933Y78600D01*
X95133Y78400D01*
X95367Y78267D01*
X95600Y78200D01*
X95833D01*
X96067Y78267D01*
X96267Y78367D01*
X96433Y78500D01*
G01X97167Y79867D02*
X97367Y80067D01*
X97600Y80167D01*
X97867Y80200D01*
X98200Y80133D01*
X98433Y79967D01*
X98500Y79767D01*
X98467Y79567D01*
X98333Y79400D01*
X97667Y79067D01*
X97367Y78833D01*
X97167Y78500D01*
X97100Y78200D01*
X98500D01*
G01X81933Y108100D02*
Y110100D01*
X82767D01*
X83033Y110000D01*
X83200Y109867D01*
X83267Y109600D01*
X83200Y109333D01*
X83000Y109167D01*
X82767Y109067D01*
X81933D01*
G01X82767D02*
X83267Y108100D01*
G01X84800D02*
Y110100D01*
X84400Y109700D01*
G01Y108100D02*
X85200D01*
G01X87000D02*
Y110100D01*
X86600Y109700D01*
G01Y108100D02*
X87400D01*
G01X94633Y112100D02*
Y114100D01*
X95467D01*
X95733Y114000D01*
X95900Y113867D01*
X95967Y113600D01*
X95900Y113333D01*
X95700Y113167D01*
X95467Y113067D01*
X94633D01*
G01X95467D02*
X95967Y112100D01*
G01X97500D02*
Y114100D01*
X97100Y113700D01*
G01Y112100D02*
X97900D01*
G01X100100D02*
Y114100D01*
X98867Y112667D01*
X100533D01*
G01X85967Y119200D02*
Y121200D01*
X86633D01*
X86900Y121100D01*
X87100Y120967D01*
X87267Y120767D01*
X87400Y120533D01*
X87433Y120200D01*
X87400Y119867D01*
X87267Y119633D01*
X87100Y119433D01*
X86900Y119300D01*
X86633Y119200D01*
X85967D01*
G01X88900D02*
Y121200D01*
X88500Y120800D01*
G01Y119200D02*
X89300D01*
G01X78500Y137200D02*
X79167D01*
Y136600D01*
X78967Y136400D01*
X78733Y136267D01*
X78400Y136200D01*
X78067Y136267D01*
X77833Y136400D01*
X77633Y136600D01*
X77500Y136833D01*
X77433Y137100D01*
Y137333D01*
X77500Y137533D01*
X77633Y137767D01*
X77833Y137967D01*
X78033Y138100D01*
X78300Y138200D01*
X78533D01*
X78800Y138133D01*
X79000Y138000D01*
G01X79733Y136200D02*
Y138200D01*
X81267Y136200D01*
Y138200D01*
G01X81967Y136200D02*
Y138200D01*
X82633D01*
X82900Y138100D01*
X83100Y137967D01*
X83267Y137767D01*
X83400Y137533D01*
X83433Y137200D01*
X83400Y136867D01*
X83267Y136633D01*
X83100Y136433D01*
X82900Y136300D01*
X82633Y136200D01*
X81967D01*
G01X87267Y138200D02*
X88100Y136200D01*
X88933Y138200D01*
G01X90300Y136200D02*
X90033Y136233D01*
X89800Y136367D01*
X89600Y136567D01*
X89467Y136800D01*
X89400Y137067D01*
Y137333D01*
X89467Y137600D01*
X89600Y137833D01*
X89800Y138033D01*
X90033Y138167D01*
X90300Y138200D01*
X90567Y138167D01*
X90800Y138033D01*
X91000Y137833D01*
X91133Y137600D01*
X91200Y137333D01*
Y137067D01*
X91133Y136800D01*
X91000Y136567D01*
X90800Y136367D01*
X90567Y136233D01*
X90300Y136200D01*
G01X91767Y138200D02*
Y136767D01*
X91900Y136467D01*
X92167Y136267D01*
X92500Y136200D01*
X92833Y136267D01*
X93100Y136467D01*
X93233Y136767D01*
Y138200D01*
G01X94700D02*
Y136200D01*
G01X93933Y138200D02*
X95467D01*
G01X71133Y148800D02*
X71300Y148600D01*
X71500Y148467D01*
X71733Y148400D01*
X72000Y148467D01*
X72200Y148600D01*
X72400Y148800D01*
X72467Y149067D01*
Y150400D01*
G01X73267Y148800D02*
X73467Y148567D01*
X73733Y148433D01*
X74033Y148400D01*
X74300Y148433D01*
X74567Y148600D01*
X74733Y148800D01*
X74767Y149000D01*
X74700Y149233D01*
X74467Y149400D01*
X74233Y149467D01*
X73933D01*
G01X74233D02*
X74433Y149567D01*
X74600Y149733D01*
X74667Y149933D01*
X74600Y150133D01*
X74433Y150300D01*
X74133Y150400D01*
X73833Y150367D01*
X73533Y150233D01*
G01X116033Y22800D02*
Y24800D01*
X116867D01*
X117133Y24700D01*
X117300Y24567D01*
X117367Y24300D01*
X117300Y24033D01*
X117100Y23867D01*
X116867Y23767D01*
X116033D01*
G01X116867D02*
X117367Y22800D01*
G01X118833D02*
X118900Y23233D01*
X119000Y23600D01*
X119133Y23933D01*
X119300Y24300D01*
X119567Y24800D01*
X118233D01*
G01X98633Y41600D02*
X98800Y41400D01*
X99000Y41267D01*
X99233Y41200D01*
X99500Y41267D01*
X99700Y41400D01*
X99900Y41600D01*
X99967Y41867D01*
Y43200D01*
G01X100767Y41500D02*
X100967Y41333D01*
X101200Y41233D01*
X101500Y41200D01*
X101800Y41267D01*
X102033Y41400D01*
X102200Y41633D01*
X102233Y41900D01*
X102167Y42167D01*
X102000Y42333D01*
X101767Y42467D01*
X101533Y42500D01*
X101300Y42467D01*
X101000Y42333D01*
X101100Y43200D01*
X102000D01*
G01X106133Y68800D02*
Y70800D01*
X106967D01*
X107233Y70700D01*
X107400Y70567D01*
X107467Y70300D01*
X107400Y70033D01*
X107200Y69867D01*
X106967Y69767D01*
X106133D01*
G01X106967D02*
X107467Y68800D01*
G01X108367Y69633D02*
X108600Y69867D01*
X108800Y70000D01*
X109067Y70067D01*
X109300Y70000D01*
X109467Y69867D01*
X109600Y69667D01*
X109633Y69433D01*
X109600Y69233D01*
X109467Y69033D01*
X109267Y68867D01*
X109033Y68800D01*
X108767Y68867D01*
X108533Y69067D01*
X108400Y69367D01*
X108367Y69700D01*
X108433Y70133D01*
X108533Y70367D01*
X108700Y70600D01*
X108933Y70767D01*
X109167Y70800D01*
X109400Y70733D01*
X109567Y70567D01*
G01X107733Y59633D02*
X107533Y59733D01*
X107300Y59800D01*
X107033D01*
X106733Y59700D01*
X106500Y59533D01*
X106333Y59333D01*
X106200Y59000D01*
X106167Y58700D01*
X106233Y58400D01*
X106333Y58200D01*
X106533Y58000D01*
X106767Y57867D01*
X107000Y57800D01*
X107233D01*
X107467Y57867D01*
X107667Y57967D01*
X107833Y58100D01*
G01X109200Y57800D02*
Y59800D01*
X108800Y59400D01*
G01Y57800D02*
X109600D01*
G01X118100Y90100D02*
X117833Y90133D01*
X117600Y90267D01*
X117400Y90467D01*
X117267Y90700D01*
X117200Y90967D01*
Y91233D01*
X117267Y91500D01*
X117400Y91733D01*
X117600Y91933D01*
X117833Y92067D01*
X118100Y92100D01*
X118367Y92067D01*
X118600Y91933D01*
X118800Y91733D01*
X118933Y91500D01*
X119000Y91233D01*
Y90967D01*
X118933Y90700D01*
X118800Y90467D01*
X118600Y90267D01*
X118367Y90133D01*
X118100Y90100D01*
G01X118367Y90633D02*
X118767Y90100D01*
G01X120233D02*
X120300Y90533D01*
X120400Y90900D01*
X120533Y91233D01*
X120700Y91600D01*
X120967Y92100D01*
X119633D01*
G01X124833Y132400D02*
X125000Y132200D01*
X125200Y132067D01*
X125433Y132000D01*
X125700Y132067D01*
X125900Y132200D01*
X126100Y132400D01*
X126167Y132667D01*
Y134000D01*
G01X127067Y132833D02*
X127300Y133067D01*
X127500Y133200D01*
X127767Y133267D01*
X128000Y133200D01*
X128167Y133067D01*
X128300Y132867D01*
X128333Y132633D01*
X128300Y132433D01*
X128167Y132233D01*
X127967Y132067D01*
X127733Y132000D01*
X127467Y132067D01*
X127233Y132267D01*
X127100Y132567D01*
X127067Y132900D01*
X127133Y133333D01*
X127233Y133567D01*
X127400Y133800D01*
X127633Y133967D01*
X127867Y134000D01*
X128100Y133933D01*
X128267Y133767D01*
G01X121633Y106900D02*
X121800Y106700D01*
X122000Y106567D01*
X122233Y106500D01*
X122500Y106567D01*
X122700Y106700D01*
X122900Y106900D01*
X122967Y107167D01*
Y108500D01*
G01X124500Y106500D02*
X124733Y106533D01*
X125000Y106633D01*
X125167Y106800D01*
X125233Y107033D01*
X125167Y107267D01*
X124967Y107467D01*
X124667Y107567D01*
X124333D01*
X124133Y107633D01*
X123967Y107800D01*
X123900Y108033D01*
X124000Y108267D01*
X124233Y108433D01*
X124500Y108500D01*
X124767Y108433D01*
X125000Y108267D01*
X125100Y108033D01*
X125033Y107800D01*
X124867Y107633D01*
X124667Y107567D01*
X124333D01*
X124033Y107467D01*
X123833Y107267D01*
X123767Y107033D01*
X123833Y106800D01*
X124000Y106633D01*
X124267Y106533D01*
X124500Y106500D01*
G01X107133Y151000D02*
Y153000D01*
X107967D01*
X108233Y152900D01*
X108400Y152767D01*
X108467Y152500D01*
X108400Y152233D01*
X108200Y152067D01*
X107967Y151967D01*
X107133D01*
G01X107967D02*
X108467Y151000D01*
G01X110000D02*
Y153000D01*
X109600Y152600D01*
G01Y151000D02*
X110400D01*
G01X111567Y151833D02*
X111800Y152067D01*
X112000Y152200D01*
X112267Y152267D01*
X112500Y152200D01*
X112667Y152067D01*
X112800Y151867D01*
X112833Y151633D01*
X112800Y151433D01*
X112667Y151233D01*
X112467Y151067D01*
X112233Y151000D01*
X111967Y151067D01*
X111733Y151267D01*
X111600Y151567D01*
X111567Y151900D01*
X111633Y152333D01*
X111733Y152567D01*
X111900Y152800D01*
X112133Y152967D01*
X112367Y153000D01*
X112600Y152933D01*
X112767Y152767D01*
G01X140500Y50300D02*
X140233Y50333D01*
X140000Y50467D01*
X139800Y50667D01*
X139667Y50900D01*
X139600Y51167D01*
Y51433D01*
X139667Y51700D01*
X139800Y51933D01*
X140000Y52133D01*
X140233Y52267D01*
X140500Y52300D01*
X140767Y52267D01*
X141000Y52133D01*
X141200Y51933D01*
X141333Y51700D01*
X141400Y51433D01*
Y51167D01*
X141333Y50900D01*
X141200Y50667D01*
X141000Y50467D01*
X140767Y50333D01*
X140500Y50300D01*
G01X140767Y50833D02*
X141167Y50300D01*
G01X142700D02*
Y52300D01*
X142300Y51900D01*
G01Y50300D02*
X143100D01*
G01X144900Y52300D02*
X144633Y52233D01*
X144433Y52067D01*
X144300Y51867D01*
X144200Y51600D01*
X144167Y51300D01*
X144200Y51000D01*
X144300Y50733D01*
X144433Y50533D01*
X144633Y50367D01*
X144900Y50300D01*
X145167Y50367D01*
X145367Y50533D01*
X145500Y50733D01*
X145600Y51000D01*
X145633Y51300D01*
X145600Y51600D01*
X145500Y51867D01*
X145367Y52067D01*
X145167Y52233D01*
X144900Y52300D01*
G01X129000Y60400D02*
X128733Y60433D01*
X128500Y60567D01*
X128300Y60767D01*
X128167Y61000D01*
X128100Y61267D01*
Y61533D01*
X128167Y61800D01*
X128300Y62033D01*
X128500Y62233D01*
X128733Y62367D01*
X129000Y62400D01*
X129267Y62367D01*
X129500Y62233D01*
X129700Y62033D01*
X129833Y61800D01*
X129900Y61533D01*
Y61267D01*
X129833Y61000D01*
X129700Y60767D01*
X129500Y60567D01*
X129267Y60433D01*
X129000Y60400D01*
G01X129267Y60933D02*
X129667Y60400D01*
G01X131200D02*
Y62400D01*
X130800Y62000D01*
G01Y60400D02*
X131600D01*
G01X133400D02*
Y62400D01*
X133000Y62000D01*
G01Y60400D02*
X133800D01*
G01X144500Y76000D02*
X144233Y76033D01*
X144000Y76167D01*
X143800Y76367D01*
X143667Y76600D01*
X143600Y76867D01*
Y77133D01*
X143667Y77400D01*
X143800Y77633D01*
X144000Y77833D01*
X144233Y77967D01*
X144500Y78000D01*
X144767Y77967D01*
X145000Y77833D01*
X145200Y77633D01*
X145333Y77400D01*
X145400Y77133D01*
Y76867D01*
X145333Y76600D01*
X145200Y76367D01*
X145000Y76167D01*
X144767Y76033D01*
X144500Y76000D01*
G01X144767Y76533D02*
X145167Y76000D01*
G01X146133Y76233D02*
X146367Y76067D01*
X146633Y76000D01*
X146900Y76067D01*
X147133Y76267D01*
X147300Y76567D01*
X147367Y76867D01*
Y77233D01*
X147300Y77533D01*
X147133Y77800D01*
X146933Y77933D01*
X146700Y78000D01*
X146433Y77933D01*
X146233Y77800D01*
X146100Y77600D01*
X146033Y77333D01*
X146100Y77100D01*
X146267Y76867D01*
X146467Y76733D01*
X146700Y76700D01*
X146967Y76767D01*
X147167Y76933D01*
X147367Y77233D01*
G01X140333Y94100D02*
Y96100D01*
X141167D01*
X141433Y96000D01*
X141600Y95867D01*
X141667Y95600D01*
X141600Y95333D01*
X141400Y95167D01*
X141167Y95067D01*
X140333D01*
G01X141167D02*
X141667Y94100D01*
G01X143200D02*
X143433Y94133D01*
X143700Y94233D01*
X143867Y94400D01*
X143933Y94633D01*
X143867Y94867D01*
X143667Y95067D01*
X143367Y95167D01*
X143033D01*
X142833Y95233D01*
X142667Y95400D01*
X142600Y95633D01*
X142700Y95867D01*
X142933Y96033D01*
X143200Y96100D01*
X143467Y96033D01*
X143700Y95867D01*
X143800Y95633D01*
X143733Y95400D01*
X143567Y95233D01*
X143367Y95167D01*
X143033D01*
X142733Y95067D01*
X142533Y94867D01*
X142467Y94633D01*
X142533Y94400D01*
X142700Y94233D01*
X142967Y94133D01*
X143200Y94100D01*
G01X129767Y120800D02*
Y119367D01*
X129900Y119067D01*
X130167Y118867D01*
X130500Y118800D01*
X130833Y118867D01*
X131100Y119067D01*
X131233Y119367D01*
Y120800D01*
G01X131967Y119200D02*
X132167Y118967D01*
X132433Y118833D01*
X132733Y118800D01*
X133000Y118833D01*
X133267Y119000D01*
X133433Y119200D01*
X133467Y119400D01*
X133400Y119633D01*
X133167Y119800D01*
X132933Y119867D01*
X132633D01*
G01X132933D02*
X133133Y119967D01*
X133300Y120133D01*
X133367Y120333D01*
X133300Y120533D01*
X133133Y120700D01*
X132833Y120800D01*
X132533Y120767D01*
X132233Y120633D01*
G01X140867Y107900D02*
Y106467D01*
X141000Y106167D01*
X141267Y105967D01*
X141600Y105900D01*
X141933Y105967D01*
X142200Y106167D01*
X142333Y106467D01*
Y107900D01*
G01X144200Y105900D02*
Y107900D01*
X142967Y106467D01*
X144633D01*
G01X127633Y145300D02*
Y147300D01*
X128467D01*
X128733Y147200D01*
X128900Y147067D01*
X128967Y146800D01*
X128900Y146533D01*
X128700Y146367D01*
X128467Y146267D01*
X127633D01*
G01X128467D02*
X128967Y145300D01*
G01X130500D02*
Y147300D01*
X130100Y146900D01*
G01Y145300D02*
X130900D01*
G01X132633D02*
X132700Y145733D01*
X132800Y146100D01*
X132933Y146433D01*
X133100Y146800D01*
X133367Y147300D01*
X132033D01*
G01X128433Y136000D02*
Y138000D01*
X129267D01*
X129533Y137900D01*
X129700Y137767D01*
X129767Y137500D01*
X129700Y137233D01*
X129500Y137067D01*
X129267Y136967D01*
X128433D01*
G01X129267D02*
X129767Y136000D01*
G01X131300D02*
Y138000D01*
X130900Y137600D01*
G01Y136000D02*
X131700D01*
G01X133500D02*
X133733Y136033D01*
X134000Y136133D01*
X134167Y136300D01*
X134233Y136533D01*
X134167Y136767D01*
X133967Y136967D01*
X133667Y137067D01*
X133333D01*
X133133Y137133D01*
X132967Y137300D01*
X132900Y137533D01*
X133000Y137767D01*
X133233Y137933D01*
X133500Y138000D01*
X133767Y137933D01*
X134000Y137767D01*
X134100Y137533D01*
X134033Y137300D01*
X133867Y137133D01*
X133667Y137067D01*
X133333D01*
X133033Y136967D01*
X132833Y136767D01*
X132767Y136533D01*
X132833Y136300D01*
X133000Y136133D01*
X133267Y136033D01*
X133500Y136000D01*
G54D13*
G01X20550Y54100D02*
Y38100D01*
G01D02*
X13050D01*
G01D02*
Y54100D01*
G01D02*
X20550D01*
G01X13050Y57500D02*
Y73500D01*
G01X20550D02*
Y57500D01*
G01D02*
X13050D01*
G01X38800Y48250D02*
X22800D01*
G01D02*
Y55750D01*
G01D02*
X38800D01*
G01X51100Y66450D02*
X35100D01*
G01D02*
Y73950D01*
G01X13050Y73500D02*
X20550D01*
G01X25200Y99150D02*
X9200D01*
G01D02*
Y106650D01*
G01X25200D02*
Y99150D01*
G01X35100Y73950D02*
X51100D01*
G01X46500Y97950D02*
X30700D01*
G01D02*
Y102250D01*
G01D02*
X29850Y103100D01*
G01X39850Y79000D02*
X35550D01*
G01D02*
X34700Y78150D01*
G01D02*
X33850Y79000D01*
G01D02*
X29550D01*
G01D02*
Y94800D01*
G01D02*
X39850D01*
G01X9200Y106650D02*
X25200D01*
G01X29850Y103100D02*
X30700Y103950D01*
G01D02*
Y108250D01*
G01D02*
X46500D01*
G01X60850Y25600D02*
Y9600D01*
G01D02*
X53350D01*
G01D02*
Y25600D01*
G01X41250Y9600D02*
Y25600D01*
G01X48750D02*
Y9600D01*
G01D02*
X41250D01*
G01X69250Y9500D02*
X64950D01*
G01D02*
Y25300D01*
G01X53350Y25600D02*
X60850D01*
G01X41250D02*
X48750D01*
G01X64950Y25300D02*
X75250D01*
G01X38800Y55750D02*
Y48250D01*
G01X61500D02*
X45500D01*
G01D02*
Y55750D01*
G01D02*
X61500D01*
G01D02*
Y48250D01*
G01X51100Y73950D02*
Y66450D01*
G01X71800Y99250D02*
X55800D01*
G01D02*
Y106750D01*
G01X46500Y108250D02*
Y97950D01*
G01X39850Y94800D02*
Y79000D01*
G01X48200Y123950D02*
X64200D01*
G01D02*
Y116450D01*
G01D02*
X48200D01*
G01D02*
Y123950D01*
G01X64200Y126850D02*
X48200D01*
G01D02*
Y134350D01*
G01X64200D02*
Y126850D01*
G01X55800Y106750D02*
X71800D01*
G01X48200Y134350D02*
X64200D01*
G01X88950Y25700D02*
Y9700D01*
G01D02*
X81450D01*
G01D02*
Y25700D01*
G01X102050Y9700D02*
X94550D01*
G01D02*
Y25700D01*
G01X75250Y25300D02*
Y9500D01*
G01D02*
X70950D01*
G01D02*
X70100Y8650D01*
G01D02*
X69250Y9500D01*
G01X81450Y25700D02*
X88950D01*
G01X94550D02*
X102050D01*
G01X104700Y66350D02*
X88700D01*
G01D02*
Y73850D01*
G01Y62550D02*
X104700D01*
G01Y55050D02*
X88700D01*
G01D02*
Y62550D01*
G01Y73850D02*
X104700D01*
G01X71800Y106750D02*
Y99250D01*
G01X92300Y106750D02*
Y99250D01*
G01D02*
X76300D01*
G01D02*
Y106750D01*
G01D02*
X92300D01*
G01X67500Y125350D02*
X83300D01*
G01D02*
Y121050D01*
G01D02*
X84150Y120200D01*
G01D02*
X83300Y119350D01*
G01D02*
Y115050D01*
G01D02*
X67500D01*
G01D02*
Y125350D01*
G01X102050Y25700D02*
Y9700D01*
G01X104700Y73850D02*
Y66350D01*
G01Y62550D02*
Y55050D01*
G01X117900Y107550D02*
Y100050D01*
G01D02*
X101900D01*
G01D02*
Y107550D01*
G01X122800Y98750D02*
X138800D01*
G01Y91250D02*
X122800D01*
G01D02*
Y98750D01*
G01X116000Y75450D02*
X100000D01*
G01D02*
Y82950D01*
G01D02*
X116000D01*
G01D02*
Y75450D01*
G01X101900Y117050D02*
X117900D01*
G01D02*
Y109550D01*
G01D02*
X101900D01*
G01D02*
Y117050D01*
G01Y107550D02*
X117900D01*
G01X138800Y98750D02*
Y91250D01*
G01X135100Y131450D02*
X150900D01*
G01D02*
Y127150D01*
G01D02*
X151750Y126300D01*
G01D02*
X150900Y125450D01*
G01D02*
Y121150D01*
G01D02*
X135100D01*
G01D02*
Y131450D01*
G01X150800Y108750D02*
X135000D01*
G01D02*
Y113050D01*
G01D02*
X134150Y113900D01*
G01D02*
X135000Y114750D01*
G01D02*
Y119050D01*
G01D02*
X150800D01*
G01D02*
Y108750D01*
G01X135000Y150250D02*
X151000D01*
G01D02*
Y142750D01*
G01D02*
X135000D01*
G01D02*
Y150250D01*
G01Y140750D02*
X151000D01*
G01D02*
Y133250D01*
G01D02*
X135000D01*
G01D02*
Y140750D01*
G54D14*
G01X113200Y40678D02*
X122058D01*
G01X117728Y36150D02*
Y45206D01*
G01X111822Y40678D02*
G03X117728Y34772I5906J0D01*
G03X123633Y40875I-1J5909D01*
G03X117728Y46583I-5899J-194D01*
G03X111822Y40678I-1J-5905D01*
G01X123239Y30835D02*
X127570D01*
Y50520D01*
X126389D01*
G01X112216Y30835D02*
X107885D01*
Y50520D01*
X109066D01*
G01X116743D02*
X118712D01*
G01X110172Y139950D02*
Y130894D01*
G01X116078Y135422D02*
G03X110172Y141328I-5906J0D01*
G03X104267Y135225I1J-5909D01*
G03X110172Y129517I5899J194D01*
G03X116078Y135422I1J5905D01*
G01X111157Y125580D02*
X109188D01*
G01X104661Y145265D02*
X100330D01*
Y125580D01*
X101511D01*
G01X115684Y145265D02*
X120015D01*
Y125580D01*
X118834D01*
G01X114700Y135422D02*
X105842D01*
M02*
