G04 ================== begin FILE IDENTIFICATION RECORD ==================*
G04 Layout Name:  SCHEMAX7_v2.brd*
G04 Film Name:    TOP*
G04 File Format:  Gerber RS274X*
G04 File Origin:  Cadence Allegro 16.6-2015-S059*
G04 Origin Date:  Sat Dec 10 15:56:44 2022*
G04 *
G04 Layer:  ETCH/TOP*
G04 Layer:  PIN/TOP*
G04 Layer:  VIA CLASS/TOP*
G04 *
G04 Offset:    (0.00 0.00)*
G04 Mirror:    No*
G04 Mode:      Positive*
G04 Rotation:  0*
G04 FullContactRelief:  No*
G04 UndefLineWidth:     5.00*
G04 ================== end FILE IDENTIFICATION RECORD ====================*
%FSLAX25Y25*MOIN*%
%IR0*IPPOS*OFA0.00000B0.00000*MIA0B0*SFA1.00000B1.00000*%
%ADD10R,.08X.12*%
%ADD17C,.03*%
%ADD12C,.08*%
%ADD11R,.05X.05*%
%ADD20R,.05118X.05118*%
%ADD16C,.03937*%
%ADD13R,.036X.05*%
%ADD18R,.05X.036*%
%ADD14R,.048X.076*%
%ADD15R,.076X.048*%
%ADD19R,.07874X.05118*%
%ADD21C,.022*%
%ADD22C,.018*%
%ADD26R,.10004X.07204*%
%ADD25R,.07204X.10004*%
%ADD27C,.07878*%
%ADD23R,.0752X.0752*%
%ADD24R,.07404X.07404*%
G75*
%LPD*%
G75*
G36*
G01X4001Y4001D02*
Y153479D01*
X45198D01*
Y138998D01*
X58098D01*
Y134302D01*
X56698D01*
Y126898D01*
X64102D01*
Y134302D01*
X62702D01*
Y138998D01*
X65602D01*
Y142498D01*
X67798D01*
Y132547D01*
X71347Y128998D01*
X78184D01*
G03Y133602I1416J2302D01*
G01X73253D01*
X72402Y134453D01*
Y143384D01*
G03X68684Y147102I-2302J1416D01*
G01X65602D01*
Y153479D01*
X75698D01*
Y139298D01*
X96102D01*
Y144198D01*
X99502D01*
Y144242D01*
X105034D01*
Y142784D01*
X115310D01*
Y144198D01*
X135098D01*
Y142798D01*
X136498D01*
Y140702D01*
X135098D01*
Y133298D01*
X142502D01*
Y140702D01*
X141102D01*
Y142798D01*
X142502D01*
Y150202D01*
X135098D01*
Y148802D01*
X118710D01*
Y148846D01*
X115310D01*
Y150304D01*
X105034D01*
Y148846D01*
X96102D01*
Y153479D01*
X153479D01*
Y33530D01*
X153105Y33440D01*
X153030Y33568D01*
G03X152802Y33898I-2331J-1367D01*
G01Y47902D01*
X149602D01*
Y49502D01*
X143598D01*
Y42098D01*
X148598D01*
Y33898D01*
G03X152772Y30466I2102J-1698D01*
G02X153479Y30210I307J-256D01*
G01Y4001D01*
X4001D01*
G37*
%LPC*%
G75*
G36*
G01X20502Y54002D02*
Y46598D01*
X13098D01*
Y54002D01*
X14698D01*
Y57598D01*
X13098D01*
Y59198D01*
X10830D01*
X7798Y62230D01*
Y82470D01*
X10830Y85502D01*
X13898D01*
Y87102D01*
X18598D01*
Y87698D01*
X17698D01*
Y95102D01*
X23702D01*
Y87698D01*
X22902D01*
Y85102D01*
X29698D01*
Y86602D01*
X39702D01*
Y85102D01*
X42541D01*
G02X52059I4759J-2102D01*
G01X57298D01*
Y86702D01*
X63302D01*
Y79298D01*
X62402D01*
Y78570D01*
X62970Y78002D01*
X85730D01*
X86298Y78570D01*
Y80298D01*
X84698D01*
Y86302D01*
X92102D01*
Y80298D01*
X90502D01*
Y76830D01*
X87470Y73798D01*
X61230D01*
X58198Y76830D01*
Y79298D01*
X57298D01*
Y80898D01*
X52059D01*
G02X49402Y78241I-4759J2102D01*
G01Y73902D01*
X51002D01*
Y66498D01*
X43598D01*
Y73902D01*
X45198D01*
Y78241D01*
G02X42541Y80898I2102J4759D01*
G01X39702D01*
Y79398D01*
X29698D01*
Y80898D01*
X20751D01*
X20584Y81065D01*
G03X19902Y80782I-282J-283D01*
G01Y79698D01*
X13898D01*
Y81298D01*
X12570D01*
X12002Y80730D01*
Y63970D01*
X12570Y63402D01*
X13098D01*
Y65002D01*
X20502D01*
Y57598D01*
X18902D01*
Y54002D01*
X20502D01*
G37*
G36*
G01X39702Y87298D02*
X29698D01*
Y94502D01*
X32598D01*
Y98098D01*
X31098D01*
Y108198D01*
X24553D01*
X23702Y107347D01*
Y106602D01*
X25102D01*
Y99198D01*
X17698D01*
Y106602D01*
X19098D01*
Y109253D01*
X22647Y112802D01*
X50784D01*
G02X53616I1416J-2302D01*
G01X78853D01*
X82402Y109253D01*
Y106702D01*
X83802D01*
Y99298D01*
X76398D01*
Y106702D01*
X77798D01*
Y107347D01*
X76947Y108198D01*
X53616D01*
G02X50784I-1416J2302D01*
G01X46202D01*
Y105402D01*
X49602D01*
Y105302D01*
X55898D01*
Y106702D01*
X63302D01*
Y99298D01*
X55898D01*
Y100698D01*
X46202D01*
Y98098D01*
X38998D01*
Y108198D01*
X38302D01*
Y98098D01*
X36802D01*
Y94502D01*
X39702D01*
Y87298D01*
G37*
G36*
G01X120900Y72443D02*
G03X121042Y72102I142J-141D01*
G01X121325D01*
X124356Y69070D01*
Y55560D01*
X126016D01*
Y47846D01*
X134074D01*
X134130Y47902D01*
X135898D01*
Y49502D01*
X136798D01*
Y54898D01*
X135198D01*
Y60902D01*
X142602D01*
Y54898D01*
X141002D01*
Y49502D01*
X141902D01*
Y42098D01*
X135898D01*
Y43642D01*
X120703D01*
X119830Y42769D01*
Y33316D01*
X122866D01*
Y25796D01*
X112590D01*
Y33316D01*
X115626D01*
Y41538D01*
X113716D01*
X111098Y44155D01*
Y48040D01*
X109440D01*
Y49698D01*
X106505D01*
X104605Y47798D01*
X100798D01*
G02Y52002I-1698J2102D01*
G01X102865D01*
X104765Y53902D01*
X109440D01*
Y55560D01*
X116960D01*
Y48040D01*
X115302D01*
Y45895D01*
X115456Y45740D01*
X116858D01*
X118815Y47698D01*
G03X118674Y48040I-141J142D01*
G01X118494D01*
Y55560D01*
X120154D01*
Y67330D01*
X119585Y67898D01*
X104602D01*
Y66398D01*
X97198D01*
Y73802D01*
X102061D01*
G03X102344Y74484I0J400D01*
G01X101698Y75130D01*
Y75498D01*
X100098D01*
Y82902D01*
X101698D01*
Y87502D01*
X101998D01*
Y88098D01*
X100398D01*
Y88998D01*
X97698D01*
G02Y93202I-1698J2102D01*
G01X100398D01*
Y94102D01*
X107802D01*
Y88098D01*
X106202D01*
Y82902D01*
X107502D01*
Y76302D01*
X108498D01*
Y82902D01*
X109998D01*
Y84298D01*
X108398D01*
Y90302D01*
X115802D01*
Y84298D01*
X114202D01*
Y82902D01*
X115902D01*
Y81302D01*
X119102D01*
G02X122937Y77546I1699J-2102D01*
G03X123253Y76902I316J-244D01*
G01X128198D01*
Y78502D01*
X134202D01*
Y71098D01*
X128198D01*
Y72698D01*
X121155D01*
X120900Y72443D01*
G37*
G36*
G01X138526Y101971D02*
X137514Y100959D01*
Y100259D01*
X137302Y100047D01*
Y98702D01*
X138702D01*
Y91298D01*
X137302D01*
Y86502D01*
X138002D01*
Y85102D01*
X145653D01*
X149202Y81553D01*
Y64802D01*
X150602D01*
Y58798D01*
X143198D01*
Y64802D01*
X144598D01*
Y79647D01*
X143747Y80498D01*
X138002D01*
Y79098D01*
X131998D01*
Y86502D01*
X132698D01*
Y91298D01*
X131298D01*
Y98702D01*
X132698D01*
Y101338D01*
G03X132234Y101733I-400J0D01*
G02X129698Y106098I-434J2667D01*
G01Y110362D01*
X129844Y110508D01*
Y111798D01*
X128359D01*
G02Y116002I-4759J2102D01*
G01X135398D01*
Y118902D01*
X142602D01*
Y108898D01*
X135398D01*
Y111798D01*
X134048D01*
Y108768D01*
X133902Y108622D01*
Y106098D01*
G02X134388Y105177I-2102J-1698D01*
G03X135054Y105009I383J115D01*
G01X135271Y105226D01*
X135285Y105278D01*
G02X138578Y101985I2615J-678D01*
G01X138526Y101971D01*
G37*
G36*
G01X117802Y101698D02*
Y100098D01*
X110398D01*
Y107502D01*
X111998D01*
Y109598D01*
X110398D01*
Y117002D01*
X117802D01*
Y109598D01*
X116202D01*
Y107502D01*
X117802D01*
Y105902D01*
X121902D01*
G02Y101698I1698J-2102D01*
G01X117802D01*
G37*
G36*
G01X84453Y4698D02*
X45647D01*
X42698Y7647D01*
Y9698D01*
X41298D01*
Y11098D01*
X37002D01*
Y6198D01*
X16598D01*
Y20602D01*
X37002D01*
Y15702D01*
X41298D01*
Y17102D01*
X48702D01*
Y9302D01*
X53398D01*
Y17102D01*
X60802D01*
Y15602D01*
X65098D01*
Y17102D01*
X75102D01*
Y9898D01*
X65098D01*
Y11398D01*
X63802D01*
Y11298D01*
X60802D01*
Y9302D01*
X82547D01*
X82702Y9457D01*
G03X82561Y9798I-141J141D01*
G01X81498D01*
Y17202D01*
X88902D01*
Y15802D01*
X94598D01*
Y17202D01*
X102002D01*
Y15802D01*
X125584D01*
G02Y11198I1416J-2302D01*
G01X102002D01*
Y9798D01*
X94598D01*
Y11198D01*
X88902D01*
Y9798D01*
X87502D01*
Y7747D01*
X84453Y4698D01*
G37*
G36*
G01X48702Y19698D02*
Y18098D01*
X41298D01*
Y25502D01*
X48702D01*
Y23902D01*
X53398D01*
Y25502D01*
X60802D01*
Y18098D01*
X53398D01*
Y19698D01*
X48702D01*
G37*
G36*
G01X145102Y34098D02*
Y29216D01*
G02X140498I-2302J-1416D01*
G01Y34098D01*
X139798D01*
Y41502D01*
X145802D01*
Y34098D01*
X145102D01*
G37*
G36*
G01X42498Y31798D02*
X34559D01*
G02Y36002I-4759J2102D01*
G01X42498D01*
Y37602D01*
X48502D01*
Y36002D01*
X58398D01*
Y37602D01*
X64402D01*
Y35702D01*
X66670D01*
X67784Y34588D01*
X67851Y34579D01*
G02X64857Y31340I-351J-2679D01*
G01X64823Y31498D01*
X64402D01*
Y30198D01*
X58398D01*
Y31798D01*
X48502D01*
Y30198D01*
X42498D01*
Y31798D01*
G37*
G36*
G01X20502Y39798D02*
Y38198D01*
X13098D01*
Y45602D01*
X20502D01*
Y44002D01*
X38598D01*
Y45602D01*
X44602D01*
Y38198D01*
X38598D01*
Y39798D01*
X20502D01*
G37*
G36*
G01X52302Y45602D02*
Y38198D01*
X46298D01*
Y45602D01*
X47198D01*
Y48298D01*
X45598D01*
Y49898D01*
X38702D01*
Y48298D01*
X31298D01*
Y55702D01*
X38702D01*
Y54102D01*
X45598D01*
Y55702D01*
X53002D01*
Y48298D01*
X51402D01*
Y45602D01*
X52302D01*
G37*
G36*
G01X77702Y62502D02*
Y55098D01*
X71698D01*
Y56698D01*
X32430D01*
X21530Y67598D01*
X20502D01*
Y65998D01*
X13098D01*
Y73402D01*
X20502D01*
Y71802D01*
X23270D01*
X34170Y60902D01*
X71698D01*
Y62502D01*
X77702D01*
G37*
G36*
G01X85402Y56698D02*
Y55098D01*
X79398D01*
Y62502D01*
X85402D01*
Y60902D01*
X88798D01*
Y62502D01*
X90398D01*
Y66398D01*
X88798D01*
Y73802D01*
X96202D01*
Y66398D01*
X94602D01*
Y62502D01*
X96202D01*
Y55098D01*
X88798D01*
Y56698D01*
X85402D01*
G37*
G36*
G01X142602Y68602D02*
Y62598D01*
X135198D01*
Y63498D01*
X133298D01*
G02Y67702I-1698J2102D01*
G01X135198D01*
Y68602D01*
X136798D01*
Y71098D01*
X135898D01*
Y78502D01*
X141902D01*
Y71098D01*
X141002D01*
Y68602D01*
X142602D01*
G37*
G36*
G01X84102Y90102D02*
Y84098D01*
X76698D01*
Y84998D01*
X74930D01*
X72298Y87630D01*
Y92702D01*
G02X76502I2102J1698D01*
G01Y90102D01*
X84102D01*
G37*
G36*
G01X16002Y95102D02*
Y87698D01*
X9998D01*
Y95102D01*
X10898D01*
Y99198D01*
X9298D01*
Y106602D01*
X16702D01*
Y99198D01*
X15102D01*
Y95102D01*
X16002D01*
G37*
G36*
G01X92102Y94002D02*
Y87998D01*
X84698D01*
Y94002D01*
X86298D01*
Y97002D01*
X86398D01*
Y99298D01*
X84798D01*
Y106702D01*
X92202D01*
Y99298D01*
X90602D01*
Y94002D01*
X92102D01*
G37*
G36*
G01X130302Y98702D02*
Y91298D01*
X122898D01*
Y92898D01*
X115802D01*
Y91998D01*
X108398D01*
Y98002D01*
X115802D01*
Y97102D01*
X122898D01*
Y98702D01*
X130302D01*
G37*
G36*
G01X109402Y107502D02*
Y100098D01*
X101998D01*
Y107502D01*
X103598D01*
Y109598D01*
X101998D01*
Y117002D01*
X103544D01*
Y120540D01*
X101884D01*
Y128060D01*
X109406D01*
Y120540D01*
X107802D01*
Y117002D01*
X109402D01*
Y109598D01*
X107802D01*
Y107502D01*
X109402D01*
G37*
G36*
G01X150502Y118902D02*
Y108898D01*
X143298D01*
Y118902D01*
X144798D01*
Y121298D01*
X143298D01*
Y131302D01*
X150502D01*
Y121298D01*
X149002D01*
Y118902D01*
X150502D01*
G37*
G36*
G01X75002Y125202D02*
Y115198D01*
X67798D01*
Y118098D01*
X64102D01*
Y116498D01*
X56698D01*
Y123902D01*
X64102D01*
Y122302D01*
X67798D01*
Y125202D01*
X75002D01*
G37*
G36*
G01X55702Y123902D02*
Y116498D01*
X48298D01*
Y123902D01*
X49898D01*
Y126898D01*
X48298D01*
Y134302D01*
X55702D01*
Y126898D01*
X54102D01*
Y123902D01*
X55702D01*
G37*
G36*
G01X97370Y36002D02*
X100402Y32970D01*
Y25602D01*
X102002D01*
Y18198D01*
X94598D01*
Y25602D01*
X96198D01*
Y31230D01*
X95630Y31798D01*
X85502D01*
Y30790D01*
X85667Y30761D01*
G02X87343Y26454I-467J-2661D01*
G01X87302Y26401D01*
Y25602D01*
X88902D01*
Y18198D01*
X81498D01*
Y25602D01*
X83098D01*
Y26401D01*
X83057Y26454D01*
G02X82939Y29580I2143J1646D01*
G03X82604Y30198I-335J218D01*
G01X79498D01*
Y32661D01*
G03X78816Y32944I-400J0D01*
G01X77802Y31930D01*
Y30198D01*
X71798D01*
Y37602D01*
X76498D01*
Y38198D01*
X75598D01*
Y39798D01*
X68202D01*
Y38198D01*
X62198D01*
Y45298D01*
X60502D01*
Y38198D01*
X54498D01*
Y45602D01*
X55398D01*
Y47648D01*
G03X55087Y48298I-311J250D01*
G01X53998D01*
Y55702D01*
X61402D01*
Y54102D01*
X66802D01*
G02X68894Y49327I1698J-2102D01*
G03X68597Y48747I58J-396D01*
G02X68202Y45685I-2397J-1247D01*
G01Y44002D01*
X75598D01*
Y45602D01*
X76498D01*
Y47098D01*
X75598D01*
Y54502D01*
X81602D01*
Y47098D01*
X80702D01*
Y45602D01*
X81602D01*
Y44002D01*
X87841D01*
G02Y39798I4759J-2102D01*
G01X81602D01*
Y38198D01*
X80702D01*
Y37602D01*
X85502D01*
Y36002D01*
X97370D01*
G37*
G36*
G01X54398Y88998D02*
G02Y93202I-1698J2102D01*
G01X61098D01*
Y94702D01*
X65898D01*
Y99298D01*
X64298D01*
Y106702D01*
X71702D01*
Y99298D01*
X70102D01*
Y86702D01*
X71002D01*
Y79298D01*
X64998D01*
Y86702D01*
X65898D01*
Y87298D01*
X61098D01*
Y88898D01*
X58098D01*
Y88998D01*
X54398D01*
G37*
G36*
G01X129002Y133130D02*
X128801Y132930D01*
Y131059D01*
G02X131459Y128402I-2101J-4759D01*
G01X135398D01*
Y131302D01*
X142602D01*
Y121298D01*
X135398D01*
Y124198D01*
X131459D01*
G02X124598Y131059I-4759J2102D01*
G01Y134670D01*
X124798Y134870D01*
Y136302D01*
G02X129002I2102J1698D01*
G01Y133130D01*
G37*
G54D26*
X70100Y21400D03*
G54D25*
X79300Y120200D03*
G54D27*
X140000Y20000D03*
X20000Y140000D03*
G54D23*
X114700Y124300D03*
G54D24*
X147200Y137000D03*
Y146500D03*
X100900Y58800D03*
X26600Y52000D03*
X38900Y70200D03*
%LPD*%
G75*
G54D10*
X31800Y13400D03*
X21800D03*
X60400Y146200D03*
X50400D03*
X80900Y146500D03*
X90900D03*
G54D20*
X122255Y51800D03*
X113200D03*
X105645Y124300D03*
X114700D03*
G54D11*
X16800Y41900D03*
Y50300D03*
Y69700D03*
Y61300D03*
X26600Y52000D03*
X35000D03*
X38900Y70200D03*
X13000Y102900D03*
X21400D03*
X57100Y13400D03*
X45000D03*
X57100Y21800D03*
X45000D03*
X49300Y52000D03*
X57700D03*
X47300Y70200D03*
X68000Y103000D03*
X59600D03*
X60400Y120200D03*
X52000D03*
Y130600D03*
X60400D03*
X85200Y13500D03*
X98300D03*
X85200Y21900D03*
X98300D03*
X92500Y70100D03*
Y58800D03*
X88500Y103000D03*
X80100D03*
X100900Y70100D03*
Y58800D03*
X114100Y103800D03*
X105700D03*
X126600Y95000D03*
X103800Y79200D03*
X112200D03*
X114100Y113300D03*
X105700D03*
X135000Y95000D03*
X147200Y146500D03*
X138800D03*
X147200Y137000D03*
X138800D03*
G54D21*
G01X21800Y5998D02*
Y13400D01*
G01D02*
Y20802D01*
G01X16398Y13400D02*
X21800D01*
G01X45000D02*
X31800D01*
G01X26600Y48098D02*
Y52000D01*
G01D02*
Y55902D01*
G01X22698Y52000D02*
X26600D01*
G01X34998Y70200D02*
X38900D01*
G01X21400Y102900D02*
Y108300D01*
X23600Y110500D01*
X43491D01*
G01X85200Y13500D02*
Y8700D01*
X83500Y7000D01*
X46600D01*
X45000Y8600D01*
Y13400D01*
G01X64898Y21400D02*
X70100D01*
G01X38900Y66298D02*
Y70200D01*
G01D02*
Y74102D01*
G01X59600Y103000D02*
X47300D01*
Y103100D01*
X42600D01*
G01X43491Y110500D02*
X42600Y109609D01*
Y103100D01*
G01X60400Y144800D02*
Y130600D01*
G01X52200Y110500D02*
X77900D01*
X80100Y108300D01*
Y103000D01*
G01X43491Y110500D02*
X52200D01*
G01X50400Y138798D02*
Y146200D01*
G01X44998D02*
X50400D01*
G01X60400Y144800D02*
Y146200D01*
G01X70100Y144800D02*
X60400D01*
G01X70100Y21400D02*
Y25202D01*
G01Y21400D02*
X75302D01*
G01X85200Y13500D02*
X98300D01*
G01X79300Y114998D02*
Y120200D01*
G01D02*
Y125402D01*
G01Y120200D02*
X83102D01*
G01X70100Y144800D02*
Y133500D01*
X72300Y131300D01*
X79600D01*
G01X80900Y139098D02*
Y146500D01*
G01X75498D02*
X80900D01*
G01X110172Y146544D02*
X97200D01*
Y146500D01*
X90900D01*
G01X98300Y13500D02*
X127000D01*
G01X100900Y54898D02*
Y58800D01*
G01D02*
Y62702D01*
G01Y58800D02*
X104802D01*
G01X114700Y120339D02*
Y124300D01*
G01D02*
Y128261D01*
G01X110739Y124300D02*
X114700D01*
G01D02*
X118661D01*
G01X138800Y146500D02*
X116409D01*
Y146544D01*
X110172D01*
G01X142800Y37800D02*
Y27800D01*
G01X135000Y82800D02*
X144700D01*
X146900Y80600D01*
Y61800D01*
G01X137900Y104600D02*
X135212Y101912D01*
Y101212D01*
X135000Y101000D01*
Y95000D01*
G01Y82800D02*
Y95000D01*
G01X147200Y133098D02*
Y137000D01*
G01D02*
Y140902D01*
G01Y137000D02*
X151102D01*
G01X147200Y142598D02*
Y146500D01*
G01D02*
Y150402D01*
G01Y146500D02*
X151102D01*
G01X138800Y137000D02*
Y146500D01*
G54D12*
X29800Y33900D03*
X47300Y83000D03*
X92600Y41900D03*
X126700Y126300D03*
X123600Y113900D03*
G54D22*
G01X41600Y41900D02*
X16800D01*
G01X45500Y33900D02*
X29800D01*
G01X74700Y58800D02*
X33300D01*
X22400Y69700D01*
X16800D01*
G01Y50300D02*
Y61300D01*
G01D02*
X11700D01*
X9900Y63100D01*
Y81600D01*
X11700Y83400D01*
X16900D01*
G01X49300Y52000D02*
X35000D01*
G01X13000Y102900D02*
Y91400D01*
G01X34700Y103100D02*
Y90900D01*
G01Y83000D02*
X47300D01*
G01X34700D02*
X21621D01*
X20800Y83821D01*
Y86700D01*
X20700Y86800D01*
Y91400D01*
G01X57500Y41900D02*
Y46774D01*
X58126Y47400D01*
X61070D01*
X61170Y47500D01*
X66200D01*
G01X49300Y41900D02*
Y52000D01*
G01X70100Y13500D02*
X61700D01*
Y13400D01*
X57100D01*
G01X45000Y21800D02*
X57100D01*
G01X61400Y33900D02*
X45500D01*
G01X67500Y31900D02*
X65800Y33600D01*
X61400D01*
Y33900D01*
G01X65200Y41900D02*
X78600D01*
G01X68500Y52000D02*
X57700D01*
G01X47300Y70200D02*
Y83000D01*
G01X52700Y91100D02*
X60200D01*
Y91000D01*
X64100D01*
G01X60300Y83000D02*
X47300D01*
G01X60300D02*
Y77700D01*
X62100Y75900D01*
X86600D01*
X88400Y77700D01*
Y83300D01*
G01X52000Y120200D02*
Y130600D01*
G01X60400Y120200D02*
X71400D01*
G01X82500Y33900D02*
X96500D01*
X98300Y32100D01*
Y21900D01*
G01X85200D02*
Y28100D01*
G01X78600Y41900D02*
Y50800D01*
G01X74800Y33900D02*
X76800D01*
X78600Y35700D01*
Y41900D01*
G01X92600D02*
X78600D01*
G01X92500Y58800D02*
X82400D01*
G01X92500Y70100D02*
Y58800D01*
G01X68000Y83000D02*
Y103000D01*
G01X88400Y91000D02*
Y94900D01*
X88500D01*
Y103000D01*
G01X104100Y91100D02*
X96000D01*
G01X74400Y94400D02*
Y88500D01*
X75800Y87100D01*
X80400D01*
G01X117728Y43639D02*
Y29556D01*
G01X113200Y51800D02*
Y45025D01*
X114586Y43639D01*
X117728D01*
G01X113200Y51800D02*
X105635D01*
X103735Y49900D01*
X99100D01*
G01X117728Y43639D02*
X119833Y45744D01*
X134944D01*
X135000Y45800D01*
X138900D01*
G01X100900Y70100D02*
Y70000D01*
X120455D01*
X122255Y68200D01*
Y51800D01*
G01X126600Y95000D02*
X112100D01*
G01X103800Y79200D02*
Y76000D01*
X105600Y74200D01*
X119685D01*
X120285Y74800D01*
X131200D01*
G01X103800Y79200D02*
Y85400D01*
X104100D01*
Y91100D01*
G01X112200Y79200D02*
X112100D01*
Y87300D01*
G01X112200Y79200D02*
X120800D01*
G01X114100Y103800D02*
Y113300D01*
G01Y103800D02*
X123600D01*
G01X105700Y113300D02*
Y118700D01*
X105645D01*
Y124300D01*
G01X105700Y103800D02*
Y113300D01*
G01X126900Y138000D02*
Y134000D01*
X126700Y133800D01*
Y126300D01*
G01X139000D02*
X126700D01*
G01X123600Y113900D02*
X131946D01*
G01X146600Y45800D02*
X150700D01*
Y32200D01*
G01X138900Y45800D02*
Y57900D01*
G01Y74800D02*
Y65600D01*
G01D02*
X131600D01*
G01X146900Y113900D02*
Y126300D01*
G01X131946Y113900D02*
X139000D01*
G01X131946D02*
Y109638D01*
X131800Y109492D01*
Y104400D01*
G54D13*
X20700Y91400D03*
X13000D03*
X16900Y83400D03*
X49300Y41900D03*
X41600D03*
X45500Y33900D03*
X65200Y41900D03*
X57500D03*
X61400Y33900D03*
X60300Y83000D03*
X68000D03*
X64100Y91000D03*
X74800Y33900D03*
X82500D03*
X78600Y41900D03*
X82400Y58800D03*
X74700D03*
X78600Y50800D03*
X146600Y45800D03*
X138900D03*
X142800Y37800D03*
X131200Y74800D03*
X138900D03*
X135000Y82800D03*
G54D14*
X34700Y103100D03*
X42600D03*
X79300Y120200D03*
X71400D03*
X146900Y126300D03*
X139000D03*
Y113900D03*
X146900D03*
G54D15*
X34700Y83000D03*
Y90900D03*
X70100Y13500D03*
Y21400D03*
G54D16*
X20000Y140000D03*
X140000Y20000D03*
G54D17*
X67500Y31900D03*
X66200Y47500D03*
X52700Y91100D03*
X52200Y110500D03*
X85200Y28100D03*
X68500Y52000D03*
X96000Y91100D03*
X74400Y94400D03*
X79600Y131300D03*
X70100Y144800D03*
X127000Y13500D03*
X99100Y49900D03*
X123600Y103800D03*
X120800Y79200D03*
X126900Y138000D03*
X142800Y27800D03*
X150700Y32200D03*
X131600Y65600D03*
X137900Y104600D03*
X131800Y104400D03*
G54D18*
X88400Y83300D03*
Y91000D03*
X80400Y87100D03*
X112100Y87300D03*
Y95000D03*
X104100Y91100D03*
X138900Y65600D03*
Y57900D03*
X146900Y61800D03*
G54D19*
X117728Y29556D03*
X110172Y146544D03*
M02*
